<?xml version="1.0" encoding="UTF-8"?>
<svg id="orange" xmlns="http://www.w3.org/2000/svg" viewBox="0 0 911.99 250">
  <defs>
    <style>
      .cls-1 {
        fill: #ee800c;
      }

      .cls-1, .cls-2, .cls-3 {
        stroke-width: 0px;
      }

      .cls-2 {
        fill-rule: evenodd;
      }

      .cls-2, .cls-3 {
        fill: #ee800c;
      }
    </style>
  </defs>
  <g id="full_mono-4" data-name="full_mono">
    <g>
      <g id="Letters">
        <path id="Letter_a" data-name="Letter a" class="cls-3" d="M878.12,238.43c-7.3-24.4-17.16-42.13-29.59-53.2-12.43-11.06-28.45-16.59-48.06-16.59-4.56,0-8.78.69-12.66,2.05-3.88,1.37-5.81,4.45-5.81,9.24,0,7.3,3.87,13.63,11.63,18.98,7.75,5.36,17.44,8.04,29.08,8.04,5.24,0,9.58-.45,13-1.37,3.42-.91,6.04-2.05,7.87-3.42l1.71,2.05c-7.52,7.3-14.03,13.17-19.5,17.62-5.47,4.45-10.09,7.7-13.85,9.75-3.76,2.05-7.01,3.36-9.75,3.93-2.74.57-5.81.86-9.24.86-5.93,0-11.63-.97-17.1-2.91-5.47-1.93-10.32-4.5-14.54-7.7-4.22-3.19-7.52-6.72-9.92-10.6-2.39-3.87-3.59-7.64-3.59-11.29,0-5.47,2.68-11.29,8.04-17.45,5.36-6.16,12.37-11.85,21.04-17.1,8.66-5.24,17.67-9.46,27.03-12.66,9.35-3.19,17.67-4.79,24.97-4.79,1.14,0,2.33.06,3.59.17,1.25.12,2.34.4,3.25.85-8.89-14.82-16.08-24.74-21.55-29.76-5.47-5.01-10.6-7.53-15.39-7.53-1.6,0-3.2.29-4.79.86-1.6.57-3.42,1.43-5.47,2.57l-.69.34-2.39-3.42c5.7-3.42,9.58-5.82,11.63-7.18,2.05-1.37,6.73-4.56,14.03-9.58,4.33-2.74,7.41-4.79,9.24-6.16,4.33-3.19,8.09-4.79,11.29-4.79,2.96,0,6.21,1.54,9.75,4.62,3.53,3.08,7.92,8.27,13.17,15.56,10.72,15.51,20.18,31.19,28.39,47.04,8.21,15.85,17.33,34.72,27.37,56.61.45.91,1.03,2.28,1.71,4.11l-33.87,22.24Z"/>
        <path id="Letter_h" data-name="Letter h" class="cls-3" d="M555.88,34.55c11.63-6.84,24.06-14.71,37.29-23.6,5.93-3.65,9.97-6.04,12.14-7.18,2.16-1.14,4.28-1.71,6.33-1.71,2.74,0,4.67.74,5.82,2.22,1.14,1.49,1.93,3.71,2.39,6.67.46,2.74.86,9.92,1.2,21.55.34,11.63.51,22.81.51,33.52,0,6.16-.12,13.46-.34,21.89,0,1.6-.34,16.54-1.03,44.81l-1.03,37.97c3.87-5.24,8.38-11.06,13.51-17.45,5.13-6.38,10.43-12.77,15.91-19.16,5.47-6.38,10.95-12.43,16.42-18.13,5.48-5.7,10.26-10.38,14.37-14.03,4.56-4.11,8.38-6.95,11.46-8.55,3.08-1.59,5.99-2.39,8.72-2.39,3.42,0,6.38,1.26,8.89,3.76,2.51,2.51,4.45,7.3,5.82,14.37,1.37,6.62,2.68,14.66,3.93,24.12,1.25,9.47,2.33,18.59,3.25,27.37.91,8.78,1.76,17.79,2.57,27.03.8,9.24,1.42,16.48,1.88,21.72l.34,4.79-34.55,23.6c0-11.17-.46-22.41-1.37-33.7-.91-11.29-2.97-24.34-6.16-39.17-1.6-7.07-3.65-12.94-6.16-17.62-2.51-4.67-5.93-7.01-10.26-7.01s-9.01,1.71-14.03,5.13c-5.02,3.42-11.52,9.58-19.5,18.47-13.23,14.14-23.04,26.57-29.42,37.29-6.39,10.72-11.86,21.67-16.42,32.84l-4.79.68v-3.42c.69-17.1,1.25-33.12,1.71-48.06.45-14.93.68-28.79.68-41.56,0-28.28-.51-50-1.54-65.17-1.03-15.16-2.11-25.03-3.25-29.59-.68-3.42-1.88-6.5-3.59-9.24-1.71-2.74-4.74-4.11-9.07-4.11-3.19,0-6.84,1.26-10.95,3.76l-1.71-2.74Z"/>
        <path id="Letter_l" data-name="Letter l" class="cls-3" d="M243.22,237.75c1.14-7.3,2.05-16.82,2.74-28.57.68-11.74,1.25-23.66,1.71-35.75.45-12.09.8-23.03,1.03-32.84.23-9.8.34-16.88.34-21.21,0-10.03-.23-23.49-.68-40.37-.23-9.35-.51-17.39-.85-24.12-.34-6.72-.74-11-1.2-12.83-1.14-3.88-2.91-6.55-5.3-8.04-2.39-1.48-4.62-2.22-6.67-2.22-2.74,0-5.93,1.03-9.58,3.08l-.68.34-1.37-3.42c2.28-1.59,5.53-3.82,9.75-6.67,4.22-2.85,9.01-5.99,14.37-9.41,5.36-3.42,9.58-6.1,12.66-8.04,3.08-1.94,4.96-3.02,5.64-3.25,4.56-2.96,8.43-4.45,11.63-4.45s5.47,1.37,6.84,4.11c1.37,2.74,2.05,5.93,2.05,9.58,0,1.37-.12,5.7-.34,13-.23,7.07-.34,11.18-.34,12.32,0,3.88-.12,7.87-.34,11.97v161.12l-41.39,25.66Z"/>
        <path id="Letter_A" data-name="Letter A" class="cls-3" d="M61.92,180.96c-5.25,13.23-8.55,24.97-9.92,35.23L0,240.14c14.82-23.49,27.88-47.38,39.17-71.67,11.29-24.29,24.8-55.47,40.54-93.56,4.33-10.26,7.12-17.39,8.38-21.38,1.25-3.99,2.34-8.49,3.25-13.51l40.37-21.21c3.87,14.83,9.24,31.7,16.08,50.63,6.84,18.93,14.54,37.97,23.09,57.13,8.55,19.16,16.64,35.64,24.29,49.43,7.64,13.8,13.97,23.21,18.99,28.22,3.87,3.88,7.53,5.81,10.95,5.81.23,0,.68-.11,1.37-.34h.68l1.37,2.74-31.81,21.21h-.34c-2.97,2.05-5.93,3.08-8.89,3.08-2.51,0-5.13-.86-7.87-2.57-2.74-1.71-5.93-5.53-9.58-11.46-3.42-5.47-6.9-11.57-10.43-18.3-3.54-6.72-7.47-14.54-11.8-23.43H61.92ZM70.13,158.04h68.07l-1.37-3.08c-5.47-12.32-10.66-24.46-15.57-36.43-4.91-11.97-10.43-27.31-16.59-46.01l-34.55,85.52Z"/>
      </g>
      <g id="Flower">
        <path class="cls-1" d="M427.03,95.06c-14.62-28.06-23.81-94.93,23.71-92.58,11.97.58,23.54,7.03,30.87,16.5,4.43,6.16,6.12,13.98,5.91,21.47-.38,15.07-7.36,28.26-13.93,41.26-1.37,2.9-4.02,7.83-5.24,10.67-.04.22-.04.3.01.49l-1.82-1.54c.07.02-.02-.02-.26.07-.25.08-.41.3-.37.27.03-.02.13-.2.27-.49,1.95-3.75,3.4-7.7,4.59-11.74,1.81-5.31,4.9-10.09,8.65-14.07,11.19-11.49,24.95-20.99,40.76-24.5,5.19-1.24,10.69-1.64,15.96-.59,10.69,1.99,19.06,10.28,23.36,19.95,4.38,9.61,7.04,20.03,7.39,30.59.09,2.64,0,5.28-.28,7.9-.54,5.25-1.31,10.68-3.98,15.36-6.28,11.93-18.55,19.76-31.38,23.02-3.92.88-8.01,1.06-11.98.38-3.83-.82-7.67-1.83-11.57-.99-2.53.46-4.94,1.5-7.09,2.94l.16-.51c.29.95,1.46,1.09,2.32,1.43,4.18,1.6,8.8,3.28,12.95,4.93,37.1,14.56,35.96,39.51,11.18,66.53-7.6,8.48-16.21,15.97-25.06,23.09-12.32,10.23-31.26,23.59-44.78,7.79-7.77-8.77-11.19-20.56-13.55-31.83-1.02-5.73-2.26-11.38-2.63-17.2-.3-11.65,1.29-23.07,3.53-34.29l1.71.78c-.99.74-1.17,2.3-1.36,3.37-2.31,5.82-1.74,12.14-1.74,18.3.09,8.01-.12,15.96-1.73,23.88-2.85,14.6-11.55,34.47-29.52,31.66-19.2-3.6-51.52-12.78-63.89-28.31-17.07-22.36,16.65-47.61,33.21-59.05,2.14-1.57,4.67-2.56,7.19-3.37,1.28-.33,2.72-.65,3.6-1.63l.16.36c-.22.21-.34,1.24-.54,1.16-2.79,1.43-5.29,3.5-8.2,4.86-9.55,5.31-19.07,10.9-29.65,14.13-27.52,8.72-41.53-5.62-45.78-32.17-2.29-15.99-4.88-39.25,5.93-52.53,16.43-19.02,52.83-2.31,70.86,7.42,8.75,4.72,17.61,9.51,25.91,15.07,2.25,1.52,4.41,3.31,6.58,4.84,3.3,2.17,5.75,5.92,6.64,9.76,1.08,4.5,1.57,9.57-3.54,11.61-.55.26-1.4.55-1.8.98-.68.6-.5,1.75-.53,2.61.21.85-.07,2.29.08,3.02.02.01-.03-.03.09.06.86.56,1.98,1.1,2.93,1.28,1.26.25,2.62-.02,3.7-.7,1.91-1.2,4.51-1.69,6.73-1.23,8.83,2.1,13.59,9.22,14.44,17.84,0,0-1.65-2.03-1.65-2.03-.04-.02-.1-.04-.35-.05-.22,0-.58.14-.75.26-.32.26-.16.16.08-.27,1.22-1.73,3.13-3.08,5.31-3.71,1.16-.3,2.43-.27,3.5-.03,2.11.44,3.9,1.67,4.63,1.87.04.01.05.02.02,0-.25-.05-.64-.07-.99.11-.5.26-.34.23-.22.02,1.92-2.98,4.03-6.9,6.1-9.82,2.07-2.96,4.89-6.29,8.68-7.32.45,0,.79-.29,1.37.11l1.04.75c.51.43,1.43.81,1.68-.03.17-.53.33-1.09.37-1.64-.01-.29-.16-.54-.33-.77-.12-.11-.07-.26-.02-.39.15-.39.27-.83.14-1.24-.22-.51-.65-.92-.71-1.52-.42-1.18-2.06-.75-2.96-1.29-.46-.34-.62-.93-1-1.35-.8-.82-1.35-1.8-1.65-2.91-.16-.55-.8-.79-1.03-1.32-.29-.48-.42-1.05-.5-1.6-.33-1.08-1.45-1.76-1.67-2.91-.24-2.39.64-4.77.53-7.15-.14-.57-.73.22-.98.33-.55.48-1.06-.03-1.32-.53-.05-.19-.24-.05-.37-.08-.14-.02-.27-.1-.37-.19-.48-.3-.92-2.37-1.52-1.41-1.73,2.19-3.56,4.51-6.25,5.55-.69.22-1.69.9-2.39.73-1.25-.57-2.02-2.18-3.54-2.15-4.25,4.4-10.84.07-13.72-3.91-3.15-4.1-6.16-7.84-8.37-12.45h0ZM431.9,92.47c1.06,2.17,2.71,3.98,3.8,6.14,2.77,5.16,5.66,16.27,13.41,12.81,1.52-.03,2.29,1.57,3.54,2.15.7.17,1.68-.5,2.39-.73,2.68-1.04,4.52-3.36,6.25-5.55.62-.97,1.04,1.13,1.52,1.41.1.1.23.18.37.19.13.03.32-.11.37.08.12.26.32.47.55.63.54.37,1.01-.39,1.45-.6.13-.1.29.02.3.17.1,2.39-.77,4.76-.53,7.15.21,1.15,1.34,1.83,1.67,2.91.1.84.38,1.68,1.02,2.26.2.19.45.37.5.66.35,1.55,1.29,2.37,2.13,3.61.35.89,1.35.91,2.16,1.06.52.11,1.2.29,1.33.88.05.59.49,1.01.71,1.52.13.41.01.85-.14,1.24-.06.13-.1.28.02.39.41.45.36,1.05.18,1.6-.22,1.01-.77,1.81-1.03,2.94-.13.45-.3.94-.55,1.34-.49.75-1.25.72-1.91.91l.61-.18c-1.04.52-1.92,1.28-2.77,2.24-3.4,4.02-5.82,8.97-9.1,13.23-.36.39-.71.97-1.88,1.56-.9.38-1.78.41-2.62.17-1.13-.32-1.97-.92-2.9-1.43-2.03-1.27-3.44-.88-5.08.72.11-.11.06-.08-.01.05-.18.22-.39.82-1.33,1.56-.47.36-1.21.63-1.82.66-1.56.1-3.03-.68-3.17-2.24-.74-6.67-4.08-11.89-10.57-13.34-1.85-.42-3.25,1.02-4.87,1.6-3.35,1.36-7.28.58-10.22-1.28-1.02-.57-2.07-1.61-2.55-2.92-.64-1.56-.31-2.92-.41-3.98-.09-.45-.1-1.18-.09-1.63-.05-1.25.09-2.55.68-3.83.93-2.1,2.89-3.44,4.89-4.24.58-.28.92-.58.86-.57-.02-3.1-.9-7.42-3.42-9.72-10.27-8.47-21.75-14.55-33.43-20.93-6.13-3.4-12.52-6.52-19.06-9.05-9.68-3.7-19.32-6.91-29.5-6.46-23.4.54-22.61,27.03-21.49,44.43,1.31,14.72,4.18,35.79,20.88,39.85,6.25,1.45,12.88.26,19.12-1.69,6.56-2.04,12.92-5.04,19.19-8.4,3.14-1.68,6.28-3.45,9.48-5.21,3.5-2.01,7.15-3.8,11.4-3.58,1.22.06,2.16,1.1,2.09,2.32-.02.43-.16.82-.39,1.15-.88,1.26-1.82,2.58-2.91,3.67-2.95,2.58-6.6,4.23-9.78,6.8-12.71,9.34-42.82,31.38-28.73,48.72,4.49,5.45,10.76,9.14,17.1,12.13,9.15,4.35,18.75,7.7,28.55,10.39,4.82,1.28,9.75,2.59,14.66,3.55,9.1,1.57,14.98-4.59,18.72-12.58,4.17-9.07,5.97-19.56,6.69-29.65.4-5.26.53-10.46.88-15.74.29-5.47.84-12.01,5.72-15.46.89-.93,2.46-.24,2.27,1.04-1.81,11.38-1.49,22.74-.62,34.04,1.35,14.3,5.17,35.53,14.84,46.13,11.36,12.07,27.3-.95,37.33-8.94,15.35-12.69,35.63-29.71,40.31-49.04,4.37-19.7-17.79-28.85-32.85-34.17-1.43-.52-4.47-1.72-5.83-2.16-.54-.18-1.51-.52-2.53-1.34-1.07-.84-1.84-2.05-2.2-3.08-.82-2.24.03-4.69,1.93-5.97,2.69-1.82,5.85-3.19,9.17-3.8,3.31-.62,6.7-.5,9.81.15,2.19.54,4.68,1.09,6.94,1.12,10.81.19,23.68-6.93,30.42-15.11,2.56-3.12,4.61-6.68,5.82-10.53,1.37-5.11,1.69-10.37,1.57-15.68-.21-9.73-2.58-19.62-6.52-28.51-6.06-13.87-18.47-20.45-33.3-16.61-12.25,2.71-23.32,9.38-32.61,17.76-5.49,4.81-10.67,10.43-12.93,17.44-1.42,4.78-3.01,9.3-5.48,13.66-1.4,2.41-6.1,2.99-7.16,0-1.29-3.3.92-6.22,2.2-9.02,2.07-4.22,7.29-14.91,9.39-19.23,7.21-15.16,12.48-37.01-1.92-49.36-9.36-8.22-22.6-10.95-34.49-7.75-12.41,3.52-17.13,17.65-17.69,29.46-.75,18.42,2.89,37.04,11.17,53.61h0Z"/>
      </g>
      <g id="Swimmer">
        <path id="Swimmer_body" data-name="Swimmer body" class="cls-2" d="M429.47,93.76c3.47,4.59,8.27,6.63,13.8,7.56,7.66,1.29,15.27,2.9,22.94,4.19,2.78.47,4.14,1.67,4.39,4.59.24,2.75,1.74,5.21,2.75,7.77.96,2.45,1.83,4.88,1.97,7.59.1,1.96.66,4,1.45,5.81,1.94,4.47,1.31,8.76-.52,13.24-2.7-2.71-3.38-6.44-5.26-9.48-2.2-5.87-4.76-11.6-6.54-17.65-.88-2.99-3.75-4.69-6.77-4.04-7.75,1.68-15.75,1.58-23.45,3.53-2.42.62-4.33-.03-6.05-1.93-3.96-4.38-8.14-8.56-12.12-12.92-14.55-15.92-32.01-27.24-52.52-34-10.24-3.37-20.31-7.24-30.46-10.91-1.75-.63-3.45-1.37-5.87-2.35,3.78-.91,6.77.07,9.63.68,18.55,3.93,36.83,8.84,54.63,15.42,3.43,1.27,6.69,2.85,9.76,4.83,9.4,6.04,18.82,12.04,28.24,18.06Z"/>
        <path id="Swimmer_head" data-name="Swimmer head" class="cls-2" d="M438.78,129.69c.18-7.53,6.07-12.64,13.52-11.68,2.02.26,3.86.98,5.36,2.47,3.94,3.89,4.65,12.24,1.41,16.72-2.99,4.12-7.87,5.86-12.2,4.35-5.05-1.76-8.23-6.42-8.1-11.86Z"/>
      </g>
      <g id="Runner">
        <path id="Runner_body" data-name="Runner body" class="cls-2" d="M505.52,126.15c0-6.93-.05-13.53.01-20.14.08-7.66.06-15.32-.34-22.97-.05-.87-.1-1.76-.26-2.61-.19-1.05-.85-1.52-1.89-1.04-3.78,1.75-7.34,3.83-10.1,7.05-1.06,1.24-1.2,2.64-.79,4.23.81,3.15,1.47,6.35,2.19,9.53.47,2.08.56,4.16.33,6.37-1.25-.32-1.28-1.29-1.57-2.05-2.26-5.98-4.69-11.88-6.21-18.13-.64-2.61-.06-4.5,1.96-5.93,5.02-3.55,10-7.16,15.47-10.03,2.48-1.3,4.53-1.22,6.76.86,5.51,5.14,11.69,9.49,17.1,14.76,2.44,2.38,4.31,2.31,6.88-.15,2.45-2.34,4.67-4.91,6.98-7.39.86-.92,1.66-2.16,3.07-.89,1.22,1.11.68,2.26-.17,3.32-.31.39-.63.79-.99,1.13-3.24,3.06-5.61,6.72-7.57,10.7-1.99,4.05-3.1,4.34-7.07,2.48-2.16-1.01-4.34-1.97-6.56-2.83-2.67-1.04-3.54-.71-4.81,1.84-1.91,3.83-3.13,7.92-4.39,11.99-1.63,5.27-3.21,10.57-5.51,15.6-.65,1.42-1.19,2.95-2.52,4.29Z"/>
        <path id="Runner_head" data-name="Runner head" class="cls-2" d="M534.35,64.49c-.06.32-.13.69-.21,1.05-.64,3.2-4.85,7.01-8.51,7.7-3.19.6-7.04-1.23-8.99-4.27-3.35-5.25,1.08-13.82,7.34-14.15.61-.03,1.27.05,1.82.28,3.74,1.57,6.39,4.29,8.16,7.9.22.44.25.96.38,1.5Z"/>
      </g>
      <g id="Cyclist">
        <path id="Cyclist_back" data-name="Cyclist back" class="cls-2" d="M482.7,182.37c0-3.76-.16-7.53.04-11.28.24-4.39,1.35-5.38,5.62-6.05,3.37-.53,6.76-.44,10.14-.28,2.41.12,4.01-.63,4.88-3.11.88-2.49,2.11-3.19,3.75-2.86,2.45.5,4.46,3.07,4.29,5.48-.13,1.91-1.87,3.85-3.79,4.08-.99.12-2.01.02-3.01.02-7.06.03-11.85,3.32-14.38,9.97-1.52,4-2,8.27-2.97,12.41-.26,1.1-.57,2.2-.67,3.31-.44,4.65-2.98,7.98-6.79,10.29-6.95,4.22-14.26,6.16-22.16,2.57-8.78-3.99-12.34-13.07-8.71-22.4,1.91-4.91,6.36-6.96,10.96-8.44,5.53-1.77,10.85-1.5,15.6,2.49,1.96,1.65,4.23,2.93,6.36,4.38.28-.2.56-.4.83-.6ZM464.44,180.35c-1.94-.05-4.94.73-7.68,2.42-5.1,3.14-7.77,10.02-2.97,16.27,6.44,8.38,19.08,7.72,24.56-1.32,2.44-4.02,1.98-9.05-1.19-12.56-3.06-3.39-6.98-4.74-12.73-4.8Z"/>
        <path id="Cyclist_front" data-name="Cyclist front" class="cls-2" d="M509.63,209.14c-2.16-.07-4.28-.44-6.27-1.19-9.12-3.44-13.54-10.77-9.65-21.09,2.52-6.66,7.51-11.16,14.77-11.82,7.21-.65,12.98,2.64,16.74,8.8,6.5,10.64.11,23.57-12.22,25.03-1.12.13-2.25.18-3.37.27ZM510.21,180.35c-1,.05-2.01.04-3,.17-5.79.8-9.91,4.42-10.82,9.47-.95,5.23,1.67,10.37,6.71,13.14,6.91,3.81,15.33,1.45,20.02-5.61,2.71-4.08,2.44-8.38-.83-12.07-3.2-3.62-7.36-5.03-12.07-5.1Z"/>
      </g>
    </g>
  </g>
</svg>