<?xml version="1.0" encoding="UTF-8"?>
<svg id="blue" xmlns="http://www.w3.org/2000/svg" viewBox="0 0 373.62 39.91">
  <defs>
    <style>
      .cls-1 {
        fill: #385da8;
        stroke-width: 0px;
      }
    </style>
  </defs>
  <g id="text_dstvaloha-3" data-name="text_dstvaloha">
    <g>
      <path id="A" class="cls-1" d="M343.58,29.24c-.95,2.39-1.54,4.5-1.79,6.35l-9.38,4.32c2.67-4.23,5.03-8.54,7.06-12.92,2.04-4.38,4.47-10,7.31-16.87.78-1.85,1.29-3.14,1.51-3.86.23-.72.42-1.53.59-2.44L356.16,0c.7,2.67,1.67,5.72,2.9,9.13,1.23,3.41,2.62,6.85,4.16,10.3,1.54,3.45,3,6.43,4.38,8.91,1.38,2.49,2.52,4.18,3.42,5.09.7.7,1.36,1.05,1.97,1.05.04,0,.12-.02.25-.06h.12l.25.49-5.74,3.82h-.06c-.53.37-1.07.55-1.6.55-.45,0-.93-.15-1.42-.46-.49-.31-1.07-1-1.73-2.07-.62-.99-1.24-2.09-1.88-3.3-.64-1.21-1.35-2.62-2.13-4.23h-15.48ZM345.06,25.11h12.28l-.25-.56c-.99-2.22-1.92-4.41-2.81-6.57-.88-2.16-1.88-4.92-2.99-8.3l-6.23,15.42Z"/>
      <path id="H" class="cls-1" d="M291.89,22.39l7.22-5.37v-2.59c0-2.84-.2-4.72-.59-5.64-.39-.93-.96-1.39-1.7-1.39-.29,0-.6.08-.93.25-.33.16-.6.33-.8.49l-.56-.86,8.64-5.8c.45-.33.86-.49,1.23-.49.74,0,1.21.35,1.42,1.05.21.7.31,1.79.31,3.27v11.29h16.9v-3.45c0-.78-.01-1.48-.03-2.1-.02-.62-.09-1.24-.22-1.88-.12-.64-.32-1.16-.59-1.57-.27-.41-.63-.62-1.08-.62-.29,0-.66.1-1.11.31l-.06.06-.31-.86,7.65-5c.49-.33.86-.49,1.11-.49.66,0,1.08.31,1.26.93.18.62.28,1.38.28,2.28v31.03l-7.09,4.69c.08-1.73.13-3.45.15-5.18.02-1.73.03-3.64.03-5.74v-6.91h-16.9v13.2l-7.28,4.63c.25-5.02.37-10.86.37-17.52h-7.34Z"/>
      <path id="O" class="cls-1" d="M264.25,11.1c-.78.95-1.35,2-1.7,3.18-.35,1.17-.52,2.44-.52,3.79,0,1.73.34,3.53,1.02,5.4.68,1.87,1.6,3.61,2.78,5.21s2.5,2.9,3.98,3.89,2.98,1.48,4.5,1.48c1.32,0,2.45-.32,3.39-.96.95-.64,1.71-1.48,2.28-2.53.58-1.05.99-2.2,1.23-3.45.25-1.25.37-2.5.37-3.73,0-2.3-.35-4.51-1.05-6.63-.7-2.12-1.7-4.01-2.99-5.67-1.3-1.67-2.83-2.97-4.6-3.92-1.77-.95-3.68-1.42-5.74-1.42-.86,0-1.61.07-2.25.22-.64.14-1.16.32-1.57.52l-.25-.43c2.51-1.77,4.79-3.01,6.85-3.73,2.06-.72,3.74-1.08,5.06-1.08,1.48,0,3.04.39,4.69,1.17,1.64.78,3.17,1.9,4.56,3.36,1.4,1.46,2.53,3.17,3.39,5.12.86,1.95,1.3,4.06,1.3,6.32s-.45,4.45-1.36,6.82c-.9,2.37-2.69,4.9-5.37,7.62-.86.86-1.79,1.7-2.78,2.5s-2.11,1.58-3.36,2.34c-1.25.76-2.59,1.37-4.01,1.82s-2.85.68-4.29.68c-2.14,0-4.04-.48-5.71-1.45-1.67-.97-3.05-2.23-4.16-3.79-1.11-1.56-1.94-3.24-2.5-5.03-.56-1.79-.83-3.48-.83-5.09,0-2.47.79-4.69,2.37-6.66,1.58-1.97,3.88-4.07,6.88-6.29l.37.43Z"/>
      <path id="L" class="cls-1" d="M254.14,32.26l-6.35,6.48c-2.63-.33-6.58-.53-11.84-.62-.9,0-2,.02-3.3.06-1.3.04-2.42.12-3.36.25.37-2.84.61-5.65.71-8.45.1-2.8.15-5.35.15-7.65,0-3-.04-5.41-.12-7.22-.04-1.52-.12-2.86-.25-4.01-.12-1.15-.29-2.04-.49-2.65-.16-.37-.35-.68-.56-.93-.21-.25-.49-.37-.86-.37-.33,0-.74.14-1.23.43-.08.04-.14.08-.18.12l-.43-.74,8.14-5.24c.41-.25.74-.41.99-.49.25-.08.47-.12.68-.12.58,0,.98.22,1.2.65.23.43.36,1,.4,1.7v1.48c-.04.99-.06,2-.06,3.02l-.62,24.55,17.39-.25Z"/>
      <path id="A-2" data-name="A" class="cls-1" d="M194.24,29.24c-.95,2.39-1.54,4.5-1.79,6.35l-9.38,4.32c2.67-4.23,5.03-8.54,7.06-12.92s4.47-10,7.31-16.87c.78-1.85,1.28-3.14,1.51-3.86.23-.72.42-1.53.59-2.44L206.82,0c.7,2.67,1.67,5.72,2.9,9.13,1.23,3.41,2.62,6.85,4.16,10.3,1.54,3.45,3,6.43,4.38,8.91,1.38,2.49,2.52,4.18,3.42,5.09.7.7,1.36,1.05,1.97,1.05.04,0,.12-.02.25-.06h.12l.25.49-5.74,3.82h-.06c-.54.37-1.07.55-1.6.55-.45,0-.93-.15-1.42-.46-.49-.31-1.07-1-1.73-2.07-.62-.99-1.24-2.09-1.88-3.3-.64-1.21-1.35-2.62-2.13-4.23h-15.48ZM195.72,25.11h12.28l-.25-.56c-.99-2.22-1.92-4.41-2.81-6.57-.88-2.16-1.88-4.92-2.99-8.3l-6.23,15.42Z"/>
      <path id="_.4" data-name=".4" class="cls-1" d="M166.73,38.18c-.7.49-1.23.74-1.6.74-.41,0-.82-.16-1.23-.49-.41-.33-.77-.73-1.08-1.2-.31-.47-.57-.95-.77-1.42-.21-.47-.31-.83-.31-1.08,0-.66.37-1.21,1.11-1.67l4.32-2.9c.16,1.15.64,2.22,1.42,3.21.78.99,1.52,1.67,2.22,2.04l-4.07,2.78Z"/>
      <path id="V" class="cls-1" d="M170.74,1.11c-5.39,8.55-10.16,17.07-14.31,25.54-1.15,2.3-1.97,4.04-2.47,5.21s-.74,2.07-.74,2.68c0,.37.06.72.19,1.05.04.04.06.08.06.12-1.15.49-2.4,1.13-3.73,1.91-1.34.78-2.46,1.48-3.36,2.1-.53-2.43-1.35-4.96-2.44-7.59-1.09-2.63-2.54-5.88-4.35-9.75-.04-.08-.14-.31-.31-.68-1.6-3.41-2.97-6.18-4.1-8.3-1.13-2.12-2.27-4.08-3.42-5.89-.29-.49-.58-.86-.86-1.11-.29-.25-.64-.37-1.05-.37-.49,0-.99.25-1.48.74l-.49-.74,6.48-4.19c.41-.29.8-.51,1.17-.68.37-.16.74-.25,1.11-.25.53,0,.98.18,1.33.52.35.35.83,1.1,1.45,2.25,2.18,4.36,3.67,7.35,4.47,8.97.8,1.62,1.57,3.23,2.31,4.81.74,1.58,1.39,3.01,1.94,4.29.56,1.28,1.51,3.5,2.87,6.66.04.08.06.14.06.18l2.84-6.23c1.52-3.33,2.71-6.2,3.58-8.6.86-2.41,1.3-4.45,1.3-6.14v-.62c-.04-.21-.06-.37-.06-.49l12.03-5.43Z"/>
      <path id="_.3" data-name=".3" class="cls-1" d="M123.86,38.18c-.7.49-1.23.74-1.6.74-.41,0-.82-.16-1.23-.49-.41-.33-.77-.73-1.08-1.2-.31-.47-.57-.95-.77-1.42-.21-.47-.31-.83-.31-1.08,0-.66.37-1.21,1.11-1.67l4.32-2.9c.16,1.15.64,2.22,1.42,3.21.78.99,1.52,1.67,2.22,2.04l-4.07,2.78Z"/>
      <path id="T" class="cls-1" d="M97.09,1.48c1.93.53,4.07.86,6.41.99,1.44.08,3.62.12,6.54.12,3.49,0,6.38-.07,8.67-.22,2.28-.14,4.84-.38,7.68-.71h.25l-3.76,4.07c-.62.66-1.22,1.17-1.82,1.54-.6.37-1.31.64-2.13.8-.82.16-1.82.27-2.99.31-1.17.04-2.91.06-5.21.06-.08,2.1-.12,3.46-.12,4.1v3.67c0,3.08.02,5.79.06,8.11.04,2.32.12,4.35.25,6.08.04.86.1,1.56.19,2.1.08.53.18,1.13.31,1.79-1.28.78-2.65,1.66-4.13,2.62-1.48.97-2.94,1.96-4.38,2.99.16-1.28.31-2.89.43-4.84.12-1.95.22-3.95.28-5.98.06-2.04.1-4.04.12-6.01.02-1.97.03-3.89.03-5.74,0-3.62-.1-6.58-.31-8.88-2.47,0-4.95-.11-7.43-.34-2.49-.23-4.74-.5-6.75-.83l7.83-5.8Z"/>
      <path id="_.2" data-name=".2" class="cls-1" d="M85.25,38.18c-.7.49-1.23.74-1.6.74-.41,0-.82-.16-1.23-.49-.41-.33-.77-.73-1.08-1.2-.31-.47-.57-.95-.77-1.42-.21-.47-.31-.83-.31-1.08,0-.66.37-1.21,1.11-1.67l4.32-2.9c.16,1.15.64,2.22,1.42,3.21.78.99,1.52,1.67,2.22,2.04l-4.07,2.78Z"/>
      <path id="S" class="cls-1" d="M60.39,21.77c-1.81-.53-3.29-1.01-4.44-1.42-1.15-.41-2.19-.89-3.12-1.45-.93-.56-1.65-1.23-2.16-2.04-.51-.8-.77-1.76-.77-2.87,0-1.52.46-2.92,1.39-4.19.93-1.27,2.13-2.47,3.61-3.58,2.1-1.52,4.41-2.76,6.94-3.73,2.53-.97,5.09-1.45,7.68-1.45,1.89,0,3.59.41,5.09,1.23,1.5.82,2.25,1.69,2.25,2.59,0,.29-.14.58-.43.86-.29.29-.9.66-1.85,1.11l-4.26,2.04c-1.15-1.6-2.26-2.7-3.33-3.3-1.07-.6-2.2-.89-3.39-.89-1.6,0-2.99.44-4.16,1.33-1.17.88-1.76,2.05-1.76,3.49,0,1.73.69,3.01,2.07,3.86,1.38.84,3.77,1.8,7.19,2.87l.25.06c2.01.62,3.49,1.08,4.44,1.39.95.31,1.73.6,2.34.86.62.27,1.12.53,1.51.8.39.27.81.63,1.26,1.08,1.11,1.19,1.67,2.55,1.67,4.07,0,1.36-.61,2.89-1.82,4.6-1.21,1.71-2.83,3.34-4.84,4.9-2.02,1.56-4.25,2.83-6.69,3.79-2.45.97-4.82,1.45-7.12,1.45-2.67,0-4.89-.63-6.66-1.88-1.77-1.25-2.65-2.52-2.65-3.79,0-.41.1-.72.31-.93.21-.21.72-.53,1.54-.99l.18-.12,5.37-3.21c.04.08.08.16.12.25.33.66.66,1.23.99,1.73.33.49.76,1.01,1.3,1.54,1.77,1.69,3.84,2.53,6.23,2.53,1.73,0,3.18-.45,4.35-1.36,1.17-.9,1.76-2.16,1.76-3.76,0-1.52-.55-2.78-1.63-3.76-1.09-.99-2.64-1.79-4.66-2.41l-4.07-1.3Z"/>
      <path id="_.1" data-name=".1" class="cls-1" d="M40.96,38.18c-.7.49-1.23.74-1.6.74-.41,0-.82-.16-1.23-.49-.41-.33-.77-.73-1.08-1.2-.31-.47-.57-.95-.77-1.42-.21-.47-.31-.83-.31-1.08,0-.66.37-1.21,1.11-1.67l4.32-2.9c.16,1.15.64,2.22,1.42,3.21.78.99,1.52,1.67,2.22,2.04l-4.07,2.78Z"/>
      <path id="D" class="cls-1" d="M6.79,1.48c1.23-.08,2.53-.15,3.89-.22,1.36-.06,2.41-.09,3.15-.09,3.7,0,7.01.49,9.93,1.48,2.92.99,5.36,2.31,7.31,3.98,1.95,1.67,3.41,3.53,4.38,5.58.97,2.06,1.45,4.17,1.45,6.35,0,3.21-.9,6.1-2.71,8.67-1.81,2.57-4.59,5.23-8.33,7.99-2.34,1.69-4.32,2.84-5.92,3.45-.62.25-1.17.4-1.67.46-.49.06-.99.09-1.48.09-1.07,0-2.33-.16-3.79-.49-1.46-.33-3.73-.9-6.82-1.73.21-.74.35-1.45.43-2.13.08-.68.16-2.09.25-4.23.08-1.97.15-3.94.22-5.89.06-1.95.09-3.38.09-4.29.04-.53.06-1.03.06-1.48.04-.74.06-1.71.06-2.9V7.4c-.78-.08-1.36-.13-1.73-.15-.37-.02-.97-.03-1.79-.03-.95,0-1.89.04-2.84.12L0,7.4,6.79,1.48ZM14.13,31.15c1.27.49,2.65.95,4.13,1.36,1.48.41,2.98.62,4.5.62,1.27,0,2.44-.22,3.49-.65,1.05-.43,1.9-1.14,2.56-2.13.7-.99,1.16-2.06,1.39-3.21.23-1.15.34-2.26.34-3.33,0-1.6-.27-3.31-.8-5.12-.54-1.81-1.43-3.55-2.68-5.21-1.25-1.67-2.94-3.05-5.06-4.16-2.12-1.11-4.7-1.71-7.74-1.79l-.12,23.62Z"/>
    </g>
  </g>
</svg>