<?xml version="1.0" encoding="UTF-8"?>
<svg id="blue" xmlns="http://www.w3.org/2000/svg" viewBox="0 0 1054.85 220.94">
  <defs>
    <style>
      .cls-1 {
        fill: #385da8;
        stroke-width: 0px;
      }
    </style>
  </defs>
  <g id="text_aloha-3" data-name="text_aloha">
    <g>
      <path class="cls-1" d="M61.81,161.87c-5.24,13.21-8.54,24.93-9.9,35.17L0,220.94c14.8-23.45,27.83-47.3,39.1-71.54,11.27-24.25,24.76-55.37,40.47-93.4,4.32-10.25,7.11-17.36,8.37-21.34,1.25-3.98,2.33-8.48,3.24-13.49L131.47,0c3.87,14.8,9.22,31.65,16.05,50.54,6.83,18.9,14.51,37.91,23.05,57.03,8.54,19.12,16.62,35.57,24.25,49.34,7.62,13.78,13.94,23.17,18.95,28.17,3.87,3.87,7.51,5.81,10.93,5.81.22,0,.68-.11,1.37-.34h.68l1.37,2.73-31.76,21.17h-.34c-2.96,2.05-5.92,3.07-8.88,3.07-2.51,0-5.12-.85-7.85-2.56-2.73-1.71-5.92-5.52-9.56-11.44-3.42-5.46-6.89-11.55-10.42-18.27-3.53-6.71-7.46-14.51-11.78-23.39H61.81ZM70,138.99h67.96l-1.37-3.07c-5.46-12.29-10.64-24.42-15.54-36.37-4.9-11.95-10.42-27.26-16.56-45.93l-34.49,85.37Z"/>
      <path class="cls-1" d="M393.39,178.6l-35.17,35.86c-14.57-1.82-36.43-2.96-65.57-3.42-5.01,0-11.1.12-18.27.34-7.17.23-13.38.68-18.61,1.37,2.05-15.71,3.36-31.3,3.93-46.78.57-15.48.85-29.59.85-42.34,0-16.62-.23-29.93-.68-39.95-.23-8.42-.68-15.82-1.37-22.2-.68-6.37-1.6-11.27-2.73-14.68-.91-2.05-1.94-3.76-3.07-5.12-1.14-1.37-2.73-2.05-4.78-2.05-1.82,0-4.1.8-6.83,2.39-.46.23-.8.46-1.02.68l-2.39-4.1,45.08-29.03c2.27-1.37,4.1-2.27,5.46-2.73,1.37-.45,2.61-.68,3.76-.68,3.19,0,5.4,1.2,6.66,3.59,1.25,2.39,1.99,5.52,2.22,9.39v8.2c-.23,5.46-.34,11.04-.34,16.73l-3.42,135.91,96.3-1.37Z"/>
      <path class="cls-1" d="M449.4,61.47c-4.33,5.24-7.46,11.1-9.39,17.59-1.94,6.49-2.9,13.49-2.9,21,0,9.56,1.88,19.52,5.63,29.88,3.76,10.36,8.88,19.98,15.37,28.86,6.49,8.88,13.83,16.05,22.03,21.51,8.2,5.46,16.5,8.2,24.93,8.2,7.28,0,13.54-1.76,18.78-5.29,5.23-3.53,9.44-8.2,12.63-14,3.19-5.81,5.46-12.18,6.83-19.12,1.37-6.94,2.05-13.83,2.05-20.66,0-12.75-1.94-24.98-5.81-36.71-3.87-11.72-9.39-22.2-16.56-31.42-7.17-9.22-15.66-16.45-25.44-21.69-9.79-5.23-20.38-7.85-31.76-7.85-4.78,0-8.94.4-12.46,1.2-3.53.8-6.44,1.77-8.71,2.9l-1.37-2.39c13.88-9.79,26.52-16.67,37.9-20.66,11.38-3.98,20.71-5.98,28-5.98,8.2,0,16.84,2.17,25.95,6.49,9.1,4.33,17.53,10.53,25.27,18.61,7.74,8.08,14,17.53,18.78,28.34,4.78,10.82,7.17,22.48,7.17,35s-2.51,24.65-7.51,37.73c-5.01,13.09-14.91,27.15-29.71,42.17-4.78,4.78-9.9,9.39-15.37,13.83-5.46,4.44-11.67,8.77-18.61,12.98-6.95,4.21-14.34,7.57-22.2,10.07-7.85,2.5-15.77,3.76-23.73,3.76-11.84,0-22.37-2.67-31.59-8.03-9.22-5.35-16.9-12.35-23.05-21-6.15-8.65-10.76-17.93-13.83-27.83s-4.61-19.29-4.61-28.17c0-13.66,4.38-25.95,13.15-36.88,8.76-10.93,21.46-22.54,38.08-34.83l2.05,2.39Z"/>
      <path class="cls-1" d="M602.38,123.96l39.95-29.71v-14.34c0-15.71-1.08-26.12-3.24-31.25-2.17-5.12-5.29-7.68-9.39-7.68-1.6,0-3.3.46-5.12,1.37-1.82.91-3.3,1.83-4.44,2.73l-3.07-4.78,47.81-32.1c2.5-1.82,4.78-2.73,6.83-2.73,4.1,0,6.71,1.94,7.85,5.81,1.14,3.87,1.71,9.9,1.71,18.1v62.49h93.57v-19.12c0-4.32-.06-8.2-.17-11.61-.12-3.42-.51-6.88-1.2-10.42-.68-3.53-1.77-6.43-3.24-8.71-1.48-2.27-3.47-3.42-5.98-3.42-1.6,0-3.64.57-6.15,1.71l-.34.34-1.71-4.78,42.34-27.66c2.73-1.82,4.78-2.73,6.15-2.73,3.64,0,5.98,1.71,7,5.12,1.02,3.42,1.54,7.63,1.54,12.64v171.77l-39.27,25.95c.45-9.56.74-19.12.85-28.68.11-9.56.17-20.15.17-31.76v-38.25h-93.57v73.08l-40.3,25.61c1.37-27.77,2.05-60.1,2.05-96.98h-40.64Z"/>
      <path class="cls-1" d="M888.55,161.87c-5.24,13.21-8.54,24.93-9.9,35.17l-51.91,23.9c14.8-23.45,27.83-47.3,39.1-71.54,11.27-24.25,24.76-55.37,40.47-93.4,4.32-10.25,7.11-17.36,8.37-21.34,1.25-3.98,2.33-8.48,3.24-13.49L958.21,0c3.87,14.8,9.22,31.65,16.05,50.54,6.83,18.9,14.51,37.91,23.05,57.03,8.54,19.12,16.62,35.57,24.25,49.34,7.62,13.78,13.94,23.17,18.95,28.17,3.87,3.87,7.51,5.81,10.93,5.81.22,0,.68-.11,1.37-.34h.68l1.37,2.73-31.76,21.17h-.34c-2.96,2.05-5.92,3.07-8.88,3.07-2.51,0-5.12-.85-7.85-2.56-2.73-1.71-5.92-5.52-9.56-11.44-3.42-5.46-6.89-11.55-10.42-18.27-3.53-6.71-7.46-14.51-11.78-23.39h-85.71ZM896.75,138.99h67.96l-1.37-3.07c-5.46-12.29-10.64-24.42-15.54-36.37-4.9-11.95-10.42-27.26-16.56-45.93l-34.49,85.37Z"/>
    </g>
  </g>
</svg>