<?xml version="1.0" encoding="UTF-8"?>
<svg id="blue" xmlns="http://www.w3.org/2000/svg" viewBox="0 0 634.15 100">
  <defs>
    <style>
      .cls-1 {
        fill: #385da8;
        stroke-width: 0px;
      }
    </style>
  </defs>
  <g id="text_triathlon-3" data-name="text_triathlon">
    <g id="_Group_" data-name="&amp;lt;Group&amp;gt;">
      <path id="N" class="cls-1" d="M552.67,95.88V.55l71.33,74.76V4.39h10.15v95.61l-71.33-74.76v70.64h-10.15Z"/>
      <path id="O" class="cls-1" d="M438.81,50.21c0-27.3,21.26-47.33,47.6-47.33s47.6,20.03,47.6,47.33-21.12,47.33-47.6,47.33-47.6-20.16-47.6-47.33ZM449.24,50.21c0,20.99,16.6,37.72,37.17,37.72s37.17-16.74,37.17-37.72-16.6-37.72-37.17-37.72-37.17,16.73-37.17,37.72Z"/>
      <path id="L" class="cls-1" d="M409.46,4.39v81.89h25.24v9.6h-35.39V4.39h10.15Z"/>
      <path id="H" class="cls-1" d="M318.65,41.56h46.91V4.39h10.15v91.5h-10.15v-44.72h-46.91v44.72h-10.15V4.39h10.15v37.17Z"/>
      <path id="T" class="cls-1" d="M272.56,13.99v81.89h-10.15V13.99h-22.22V4.39h54.6v9.6h-22.22Z"/>
      <path id="A" class="cls-1" d="M221.4,70.1h-38.96l-10.97,25.79h-11.25L202.33,0l41.02,95.88h-11.25l-10.7-25.79ZM217.42,60.49l-15.36-36.63-15.64,36.63h31Z"/>
      <path id="I" class="cls-1" d="M147.33,4.39v91.5h-10.15V4.39h10.15Z"/>
      <path id="R" class="cls-1" d="M82.99,4.39c6.17,0,15.36.41,22.22,5.08,5.35,3.57,10.01,10.56,10.01,20.3,0,13.99-9.19,24.28-23.05,25.24l29.08,40.88h-12.35l-27.85-40.05h-2.61v40.05h-10.15V4.39h14.68ZM78.46,46.78h6.45c12.62,0,20.16-6.03,20.16-16.73,0-5.08-1.51-10.15-7.27-13.44-4.12-2.33-8.78-2.61-13.17-2.61h-6.17v32.78Z"/>
      <path id="T-2" data-name="T" class="cls-1" d="M32.37,13.99v81.89h-10.15V13.99H0V4.39h54.6v9.6h-22.22Z"/>
    </g>
  </g>
</svg>