<?xml version="1.0" encoding="utf-8"?>
<!-- Generator: Adobe Illustrator 28.3.0, SVG Export Plug-In . SVG Version: 6.00 Build 0)  -->
<svg version="1.1" id="Layer_1" xmlns="http://www.w3.org/2000/svg" xmlns:xlink="http://www.w3.org/1999/xlink" x="0px" y="0px"
	 viewBox="0 0 256 256" style="enable-background:new 0 0 256 256;" xml:space="preserve">
<style type="text/css">
	.st0{fill:#FFFFFF;}
	.st1{fill:#375DA8;}
	.st2{fill:#EE800B;}
</style>
<g>
	<rect y="0" class="st0" width="256" height="256"/>
	<path class="st1" d="M24.8,24.8h24.8v24.8H24.8V24.8z M24.8,231.2h24.8v-24.8H24.8V231.2z M231.2,24.8h-24.8v24.8h24.8V24.8z"/>
	<path class="st1" d="M57.8,57.8H16.5V16.5h41.3V57.8z M66.1,66.1V8.3H8.3v57.8H66.1L66.1,66.1z M57.8,198.2H16.5v41.3h41.3V198.2z
		 M66.1,189.9v57.8H8.3v-57.8H66.1L66.1,189.9z M198.2,57.8h41.3V16.5h-41.3V57.8z M189.9,66.1V8.3h57.8v57.8H189.9L189.9,66.1z"/>
	<path class="st2" d="M82.6,8.3h8.3v8.3h-8.3V8.3z M90.8,8.3h8.3v8.3h-8.3V8.3z M99.1,8.3h8.3v8.3h-8.3V8.3z M107.4,8.3h8.3v8.3
		h-8.3V8.3z M132.1,8.3h8.3v8.3h-8.3V8.3z M140.4,8.3h8.3v8.3h-8.3V8.3z M165.2,8.3h8.3v8.3h-8.3V8.3z M173.4,8.3h8.3v8.3h-8.3V8.3z
		 M82.6,16.5h8.3v8.3h-8.3V16.5z M99.1,16.5h8.3v8.3h-8.3V16.5z M148.6,16.5h8.3v8.3h-8.3V16.5z M156.9,16.5h8.3v8.3h-8.3V16.5z
		 M173.4,16.5h8.3v8.3h-8.3V16.5z M74.3,24.8h8.3V33h-8.3V24.8z M90.8,24.8h8.3V33h-8.3V24.8z M107.4,24.8h8.3V33h-8.3V24.8z
		 M123.9,24.8h8.3V33h-8.3V24.8z M140.4,24.8h8.3V33h-8.3V24.8z M165.2,24.8h8.3V33h-8.3V24.8z M74.3,33h8.3v8.3h-8.3V33z M107.4,33
		h8.3v8.3h-8.3V33z M140.4,33h8.3v8.3h-8.3V33z M148.6,33h8.3v8.3h-8.3V33z M173.4,33h8.3v8.3h-8.3V33z M74.3,41.3h8.3v8.3h-8.3
		V41.3z M82.6,41.3h8.3v8.3h-8.3V41.3z M90.8,41.3h8.3v8.3h-8.3V41.3z M99.1,41.3h8.3v8.3h-8.3V41.3z M115.6,41.3h8.3v8.3h-8.3V41.3
		z M123.9,41.3h8.3v8.3h-8.3V41.3z M132.1,41.3h8.3v8.3h-8.3V41.3z M165.2,41.3h8.3v8.3h-8.3V41.3z M173.4,41.3h8.3v8.3h-8.3V41.3z
		 M74.3,49.5h8.3v8.3h-8.3V49.5z M90.8,49.5h8.3v8.3h-8.3V49.5z M115.6,49.5h8.3v8.3h-8.3V49.5z M123.9,49.5h8.3v8.3h-8.3V49.5z
		 M132.1,49.5h8.3v8.3h-8.3V49.5z M140.4,49.5h8.3v8.3h-8.3V49.5z M173.4,49.5h8.3v8.3h-8.3V49.5z M74.3,57.8h8.3v8.3h-8.3V57.8z
		 M90.8,57.8h8.3v8.3h-8.3V57.8z M107.4,57.8h8.3v8.3h-8.3V57.8z M123.9,57.8h8.3v8.3h-8.3V57.8z M140.4,57.8h8.3v8.3h-8.3V57.8z
		 M156.9,57.8h8.3v8.3h-8.3V57.8z M173.4,57.8h8.3v8.3h-8.3V57.8z M74.3,66.1h8.3v8.3h-8.3V66.1z M82.6,66.1h8.3v8.3h-8.3V66.1z
		 M99.1,66.1h8.3v8.3h-8.3V66.1z M107.4,66.1h8.3v8.3h-8.3V66.1z M115.6,66.1h8.3v8.3h-8.3V66.1z M132.1,66.1h8.3v8.3h-8.3V66.1z
		 M156.9,66.1h8.3v8.3h-8.3V66.1z M8.3,74.3h8.3v8.3H8.3V74.3z M24.8,74.3H33v8.3h-8.3V74.3z M33,74.3h8.3v8.3H33V74.3z M41.3,74.3
		h8.3v8.3h-8.3V74.3z M49.5,74.3h8.3v8.3h-8.3V74.3z M57.8,74.3h8.3v8.3h-8.3V74.3z M82.6,74.3h8.3v8.3h-8.3V74.3z M99.1,74.3h8.3
		v8.3h-8.3V74.3z M123.9,74.3h8.3v8.3h-8.3V74.3z M132.1,74.3h8.3v8.3h-8.3V74.3z M148.6,74.3h8.3v8.3h-8.3V74.3z M165.2,74.3h8.3
		v8.3h-8.3V74.3z M189.9,74.3h8.3v8.3h-8.3V74.3z M198.2,74.3h8.3v8.3h-8.3V74.3z M206.5,74.3h8.3v8.3h-8.3V74.3z M214.7,74.3h8.3
		v8.3h-8.3V74.3z M223,74.3h8.3v8.3H223V74.3z M16.5,82.6h8.3v8.3h-8.3V82.6z M24.8,82.6H33v8.3h-8.3V82.6z M33,82.6h8.3v8.3H33
		V82.6z M66.1,82.6h8.3v8.3h-8.3V82.6z M90.8,82.6h8.3v8.3h-8.3V82.6z M132.1,82.6h8.3v8.3h-8.3V82.6z M140.4,82.6h8.3v8.3h-8.3
		V82.6z M148.6,82.6h8.3v8.3h-8.3V82.6z M156.9,82.6h8.3v8.3h-8.3V82.6z M165.2,82.6h8.3v8.3h-8.3V82.6z M173.4,82.6h8.3v8.3h-8.3
		V82.6z M181.7,82.6h8.3v8.3h-8.3V82.6z M189.9,82.6h8.3v8.3h-8.3V82.6z M198.2,82.6h8.3v8.3h-8.3V82.6z M206.5,82.6h8.3v8.3h-8.3
		V82.6z M223,82.6h8.3v8.3H223V82.6z M231.2,82.6h8.3v8.3h-8.3V82.6z M239.5,82.6h8.3v8.3h-8.3V82.6z M16.5,90.8h8.3v8.3h-8.3V90.8z
		 M33,90.8h8.3v8.3H33V90.8z M57.8,90.8h8.3v8.3h-8.3V90.8z M74.3,90.8h8.3v8.3h-8.3V90.8z M156.9,90.8h8.3v8.3h-8.3V90.8z
		 M173.4,90.8h8.3v8.3h-8.3V90.8z M189.9,90.8h8.3v8.3h-8.3V90.8z M206.5,90.8h8.3v8.3h-8.3V90.8z M8.3,99.1h8.3v8.3H8.3V99.1z
		 M16.5,99.1h8.3v8.3h-8.3V99.1z M24.8,99.1H33v8.3h-8.3V99.1z M33,99.1h8.3v8.3H33V99.1z M41.3,99.1h8.3v8.3h-8.3V99.1z M49.5,99.1
		h8.3v8.3h-8.3V99.1z M66.1,99.1h8.3v8.3h-8.3V99.1z M90.8,99.1h8.3v8.3h-8.3V99.1z M99.1,99.1h8.3v8.3h-8.3V99.1z M123.9,99.1h8.3
		v8.3h-8.3V99.1z M140.4,99.1h8.3v8.3h-8.3V99.1z M173.4,99.1h8.3v8.3h-8.3V99.1z M189.9,99.1h8.3v8.3h-8.3V99.1z M198.2,99.1h8.3
		v8.3h-8.3V99.1z M214.7,99.1h8.3v8.3h-8.3V99.1z M239.5,99.1h8.3v8.3h-8.3V99.1z M8.3,107.4h8.3v8.3H8.3V107.4z M16.5,107.4h8.3
		v8.3h-8.3V107.4z M57.8,107.4h8.3v8.3h-8.3V107.4z M74.3,107.4h8.3v8.3h-8.3V107.4z M82.6,107.4h8.3v8.3h-8.3V107.4z M90.8,107.4
		h8.3v8.3h-8.3V107.4z M99.1,107.4h8.3v8.3h-8.3V107.4z M107.4,107.4h8.3v8.3h-8.3V107.4z M140.4,107.4h8.3v8.3h-8.3V107.4z
		 M148.6,107.4h8.3v8.3h-8.3V107.4z M173.4,107.4h8.3v8.3h-8.3V107.4z M223,107.4h8.3v8.3H223V107.4z M239.5,107.4h8.3v8.3h-8.3
		V107.4z M8.3,115.6h8.3v8.3H8.3V115.6z M16.5,115.6h8.3v8.3h-8.3V115.6z M41.3,115.6h8.3v8.3h-8.3V115.6z M66.1,115.6h8.3v8.3h-8.3
		V115.6z M74.3,115.6h8.3v8.3h-8.3V115.6z M82.6,115.6h8.3v8.3h-8.3V115.6z M99.1,115.6h8.3v8.3h-8.3V115.6z M107.4,115.6h8.3v8.3
		h-8.3V115.6z M115.6,115.6h8.3v8.3h-8.3V115.6z M123.9,115.6h8.3v8.3h-8.3V115.6z M132.1,115.6h8.3v8.3h-8.3V115.6z M148.6,115.6
		h8.3v8.3h-8.3V115.6z M156.9,115.6h8.3v8.3h-8.3V115.6z M165.2,115.6h8.3v8.3h-8.3V115.6z M173.4,115.6h8.3v8.3h-8.3V115.6z
		 M181.7,115.6h8.3v8.3h-8.3V115.6z M189.9,115.6h8.3v8.3h-8.3V115.6z M198.2,115.6h8.3v8.3h-8.3V115.6z M206.5,115.6h8.3v8.3h-8.3
		V115.6z M231.2,115.6h8.3v8.3h-8.3V115.6z M239.5,115.6h8.3v8.3h-8.3V115.6z M24.8,123.9H33v8.3h-8.3V123.9z M41.3,123.9h8.3v8.3
		h-8.3V123.9z M49.5,123.9h8.3v8.3h-8.3V123.9z M57.8,123.9h8.3v8.3h-8.3V123.9z M66.1,123.9h8.3v8.3h-8.3V123.9z M99.1,123.9h8.3
		v8.3h-8.3V123.9z M107.4,123.9h8.3v8.3h-8.3V123.9z M115.6,123.9h8.3v8.3h-8.3V123.9z M123.9,123.9h8.3v8.3h-8.3V123.9z
		 M132.1,123.9h8.3v8.3h-8.3V123.9z M140.4,123.9h8.3v8.3h-8.3V123.9z M148.6,123.9h8.3v8.3h-8.3V123.9z M156.9,123.9h8.3v8.3h-8.3
		V123.9z M189.9,123.9h8.3v8.3h-8.3V123.9z M206.5,123.9h8.3v8.3h-8.3V123.9z M214.7,123.9h8.3v8.3h-8.3V123.9z M16.5,132.1h8.3v8.3
		h-8.3V132.1z M33,132.1h8.3v8.3H33V132.1z M41.3,132.1h8.3v8.3h-8.3V132.1z M74.3,132.1h8.3v8.3h-8.3V132.1z M82.6,132.1h8.3v8.3
		h-8.3V132.1z M90.8,132.1h8.3v8.3h-8.3V132.1z M99.1,132.1h8.3v8.3h-8.3V132.1z M115.6,132.1h8.3v8.3h-8.3V132.1z M132.1,132.1h8.3
		v8.3h-8.3V132.1z M156.9,132.1h8.3v8.3h-8.3V132.1z M181.7,132.1h8.3v8.3h-8.3V132.1z M189.9,132.1h8.3v8.3h-8.3V132.1z
		 M214.7,132.1h8.3v8.3h-8.3V132.1z M231.2,132.1h8.3v8.3h-8.3V132.1z M8.3,140.4h8.3v8.3H8.3V140.4z M57.8,140.4h8.3v8.3h-8.3
		V140.4z M82.6,140.4h8.3v8.3h-8.3V140.4z M90.8,140.4h8.3v8.3h-8.3V140.4z M107.4,140.4h8.3v8.3h-8.3V140.4z M123.9,140.4h8.3v8.3
		h-8.3V140.4z M132.1,140.4h8.3v8.3h-8.3V140.4z M148.6,140.4h8.3v8.3h-8.3V140.4z M165.2,140.4h8.3v8.3h-8.3V140.4z M181.7,140.4
		h8.3v8.3h-8.3V140.4z M214.7,140.4h8.3v8.3h-8.3V140.4z M223,140.4h8.3v8.3H223V140.4z M239.5,140.4h8.3v8.3h-8.3V140.4z
		 M8.3,148.6h8.3v8.3H8.3V148.6z M16.5,148.6h8.3v8.3h-8.3V148.6z M33,148.6h8.3v8.3H33V148.6z M49.5,148.6h8.3v8.3h-8.3V148.6z
		 M99.1,148.6h8.3v8.3h-8.3V148.6z M107.4,148.6h8.3v8.3h-8.3V148.6z M132.1,148.6h8.3v8.3h-8.3V148.6z M140.4,148.6h8.3v8.3h-8.3
		V148.6z M148.6,148.6h8.3v8.3h-8.3V148.6z M156.9,148.6h8.3v8.3h-8.3V148.6z M165.2,148.6h8.3v8.3h-8.3V148.6z M173.4,148.6h8.3
		v8.3h-8.3V148.6z M181.7,148.6h8.3v8.3h-8.3V148.6z M189.9,148.6h8.3v8.3h-8.3V148.6z M198.2,148.6h8.3v8.3h-8.3V148.6z
		 M206.5,148.6h8.3v8.3h-8.3V148.6z M214.7,148.6h8.3v8.3h-8.3V148.6z M231.2,148.6h8.3v8.3h-8.3V148.6z M239.5,148.6h8.3v8.3h-8.3
		V148.6z M8.3,156.9h8.3v8.3H8.3V156.9z M41.3,156.9h8.3v8.3h-8.3V156.9z M49.5,156.9h8.3v8.3h-8.3V156.9z M57.8,156.9h8.3v8.3h-8.3
		V156.9z M74.3,156.9h8.3v8.3h-8.3V156.9z M173.4,156.9h8.3v8.3h-8.3V156.9z M189.9,156.9h8.3v8.3h-8.3V156.9z M206.5,156.9h8.3v8.3
		h-8.3V156.9z M8.3,165.2h8.3v8.3H8.3V165.2z M49.5,165.2h8.3v8.3h-8.3V165.2z M66.1,165.2h8.3v8.3h-8.3V165.2z M74.3,165.2h8.3v8.3
		h-8.3V165.2z M82.6,165.2h8.3v8.3h-8.3V165.2z M107.4,165.2h8.3v8.3h-8.3V165.2z M123.9,165.2h8.3v8.3h-8.3V165.2z M140.4,165.2
		h8.3v8.3h-8.3V165.2z M156.9,165.2h8.3v8.3h-8.3V165.2z M165.2,165.2h8.3v8.3h-8.3V165.2z M173.4,165.2h8.3v8.3h-8.3V165.2z
		 M181.7,165.2h8.3v8.3h-8.3V165.2z M189.9,165.2h8.3v8.3h-8.3V165.2z M198.2,165.2h8.3v8.3h-8.3V165.2z M206.5,165.2h8.3v8.3h-8.3
		V165.2z M214.7,165.2h8.3v8.3h-8.3V165.2z M8.3,173.4h8.3v8.3H8.3V173.4z M24.8,173.4H33v8.3h-8.3V173.4z M49.5,173.4h8.3v8.3h-8.3
		V173.4z M57.8,173.4h8.3v8.3h-8.3V173.4z M99.1,173.4h8.3v8.3h-8.3V173.4z M107.4,173.4h8.3v8.3h-8.3V173.4z M140.4,173.4h8.3v8.3
		h-8.3V173.4z M156.9,173.4h8.3v8.3h-8.3V173.4z M165.2,173.4h8.3v8.3h-8.3V173.4z M173.4,173.4h8.3v8.3h-8.3V173.4z M181.7,173.4
		h8.3v8.3h-8.3V173.4z M189.9,173.4h8.3v8.3h-8.3V173.4z M214.7,173.4h8.3v8.3h-8.3V173.4z M223,173.4h8.3v8.3H223V173.4z
		 M231.2,173.4h8.3v8.3h-8.3V173.4z M74.3,181.7h8.3v8.3h-8.3V181.7z M82.6,181.7h8.3v8.3h-8.3V181.7z M99.1,181.7h8.3v8.3h-8.3
		V181.7z M107.4,181.7h8.3v8.3h-8.3V181.7z M115.6,181.7h8.3v8.3h-8.3V181.7z M123.9,181.7h8.3v8.3h-8.3V181.7z M132.1,181.7h8.3
		v8.3h-8.3V181.7z M148.6,181.7h8.3v8.3h-8.3V181.7z M156.9,181.7h8.3v8.3h-8.3V181.7z M173.4,181.7h8.3v8.3h-8.3V181.7z
		 M231.2,181.7h8.3v8.3h-8.3V181.7z M239.5,181.7h8.3v8.3h-8.3V181.7z M107.4,189.9h8.3v8.3h-8.3V189.9z M115.6,189.9h8.3v8.3h-8.3
		V189.9z M123.9,189.9h8.3v8.3h-8.3V189.9z M132.1,189.9h8.3v8.3h-8.3V189.9z M140.4,189.9h8.3v8.3h-8.3V189.9z M148.6,189.9h8.3
		v8.3h-8.3V189.9z M165.2,189.9h8.3v8.3h-8.3V189.9z M74.3,198.2h8.3v8.3h-8.3V198.2z M82.6,198.2h8.3v8.3h-8.3V198.2z M90.8,198.2
		h8.3v8.3h-8.3V198.2z M115.6,198.2h8.3v8.3h-8.3V198.2z M132.1,198.2h8.3v8.3h-8.3V198.2z M148.6,198.2h8.3v8.3h-8.3V198.2z
		 M156.9,198.2h8.3v8.3h-8.3V198.2z M239.5,198.2h8.3v8.3h-8.3V198.2z M74.3,206.5h8.3v8.3h-8.3V206.5z M82.6,206.5h8.3v8.3h-8.3
		V206.5z M90.8,206.5h8.3v8.3h-8.3V206.5z M99.1,206.5h8.3v8.3h-8.3V206.5z M107.4,206.5h8.3v8.3h-8.3V206.5z M123.9,206.5h8.3v8.3
		h-8.3V206.5z M132.1,206.5h8.3v8.3h-8.3V206.5z M231.2,206.5h8.3v8.3h-8.3V206.5z M239.5,206.5h8.3v8.3h-8.3V206.5z M74.3,214.7
		h8.3v8.3h-8.3V214.7z M90.8,214.7h8.3v8.3h-8.3V214.7z M99.1,214.7h8.3v8.3h-8.3V214.7z M132.1,214.7h8.3v8.3h-8.3V214.7z
		 M140.4,214.7h8.3v8.3h-8.3V214.7z M156.9,214.7h8.3v8.3h-8.3V214.7z M74.3,223h8.3v8.3h-8.3V223z M99.1,223h8.3v8.3h-8.3V223z
		 M115.6,223h8.3v8.3h-8.3V223z M156.9,223h8.3v8.3h-8.3V223z M165.2,223h8.3v8.3h-8.3V223z M173.4,223h8.3v8.3h-8.3V223z
		 M181.7,223h8.3v8.3h-8.3V223z M231.2,223h8.3v8.3h-8.3V223z M115.6,231.2h8.3v8.3h-8.3V231.2z M123.9,231.2h8.3v8.3h-8.3V231.2z
		 M140.4,231.2h8.3v8.3h-8.3V231.2z M173.4,231.2h8.3v8.3h-8.3V231.2z M189.9,231.2h8.3v8.3h-8.3V231.2z M198.2,231.2h8.3v8.3h-8.3
		V231.2z M206.5,231.2h8.3v8.3h-8.3V231.2z M214.7,231.2h8.3v8.3h-8.3V231.2z M231.2,231.2h8.3v8.3h-8.3V231.2z M74.3,239.5h8.3v8.3
		h-8.3V239.5z M82.6,239.5h8.3v8.3h-8.3V239.5z M107.4,239.5h8.3v8.3h-8.3V239.5z M123.9,239.5h8.3v8.3h-8.3V239.5z M140.4,239.5
		h8.3v8.3h-8.3V239.5z M156.9,239.5h8.3v8.3h-8.3V239.5z M165.2,239.5h8.3v8.3h-8.3V239.5z M181.7,239.5h8.3v8.3h-8.3V239.5z
		 M189.9,239.5h8.3v8.3h-8.3V239.5z M206.5,239.5h8.3v8.3h-8.3V239.5z M223,239.5h8.3v8.3H223V239.5z"/>
	
		<image style="overflow:visible;enable-background:new    ;" width="1024" height="1024" xlink:href="A6C4BB94EDFD0E58.png"  transform="matrix(0.25 0 0 0.25 0 0)">
	</image>
</g>
</svg>
