<?xml version="1.0" encoding="UTF-8"?>
<svg xmlns="http://www.w3.org/2000/svg" viewBox="0 0 911.99 395.68">
  <defs>
    <style>
      .cls-1 {
        fill: #ee800c;
      }

      .cls-1, .cls-2, .cls-3, .cls-4 {
        stroke-width: 0px;
      }

      .cls-2 {
        fill: #385da8;
      }

      .cls-2, .cls-3 {
        fill-rule: evenodd;
      }

      .cls-3, .cls-4 {
        fill: #fff;
      }
    </style>
  </defs>
  <g id="meta">
    <g id="orange_backgrounds">
      <rect id="triathlon_var2" class="cls-1" x="0" y="-.05" width="911.99" height="395.73"/>
    </g>
  </g>
  <g id="orange_background">
    <g id="triathlon_var2-2" data-name="triathlon_var2">
      <g>
        <g id="Letters">
          <path id="Letter_a" data-name="Letter a" class="cls-4" d="M878.12,238.43c-7.3-24.4-17.16-42.13-29.59-53.2-12.43-11.06-28.45-16.59-48.06-16.59-4.56,0-8.78.69-12.66,2.05-3.88,1.37-5.81,4.45-5.81,9.24,0,7.3,3.87,13.63,11.63,18.98,7.75,5.36,17.44,8.04,29.08,8.04,5.24,0,9.58-.45,13-1.37,3.42-.91,6.04-2.05,7.87-3.42l1.71,2.05c-7.52,7.3-14.03,13.17-19.5,17.62-5.47,4.45-10.09,7.7-13.85,9.75-3.76,2.05-7.01,3.36-9.75,3.93-2.74.57-5.81.86-9.24.86-5.93,0-11.63-.97-17.1-2.91-5.47-1.93-10.32-4.5-14.54-7.7-4.22-3.19-7.52-6.72-9.92-10.6-2.39-3.87-3.59-7.64-3.59-11.29,0-5.47,2.68-11.29,8.04-17.45,5.36-6.16,12.37-11.85,21.04-17.1,8.66-5.24,17.67-9.46,27.03-12.66,9.35-3.19,17.67-4.79,24.97-4.79,1.14,0,2.33.06,3.59.17,1.25.12,2.34.4,3.25.85-8.89-14.82-16.08-24.74-21.55-29.76-5.47-5.01-10.6-7.53-15.39-7.53-1.6,0-3.2.29-4.79.86-1.6.57-3.42,1.43-5.47,2.57l-.69.34-2.39-3.42c5.7-3.42,9.58-5.82,11.63-7.18,2.05-1.37,6.73-4.56,14.03-9.58,4.33-2.74,7.41-4.79,9.24-6.16,4.33-3.19,8.09-4.79,11.29-4.79,2.96,0,6.21,1.54,9.75,4.62,3.53,3.08,7.92,8.27,13.17,15.56,10.72,15.51,20.18,31.19,28.39,47.04,8.21,15.85,17.33,34.72,27.37,56.61.45.91,1.03,2.28,1.71,4.11l-33.87,22.24Z"/>
          <path id="Letter_h" data-name="Letter h" class="cls-4" d="M555.88,34.55c11.63-6.84,24.06-14.71,37.29-23.6,5.93-3.65,9.97-6.04,12.14-7.18,2.16-1.14,4.28-1.71,6.33-1.71,2.74,0,4.67.74,5.82,2.22,1.14,1.49,1.93,3.71,2.39,6.67.46,2.74.86,9.92,1.2,21.55.34,11.63.51,22.81.51,33.52,0,6.16-.12,13.46-.34,21.89,0,1.6-.34,16.54-1.03,44.81l-1.03,37.97c3.87-5.24,8.38-11.06,13.51-17.45,5.13-6.38,10.43-12.77,15.91-19.16,5.47-6.38,10.95-12.43,16.42-18.13,5.48-5.7,10.26-10.38,14.37-14.03,4.56-4.11,8.38-6.95,11.46-8.55,3.08-1.59,5.99-2.39,8.72-2.39,3.42,0,6.38,1.26,8.89,3.76,2.51,2.51,4.45,7.3,5.82,14.37,1.37,6.62,2.68,14.66,3.93,24.12,1.25,9.47,2.33,18.59,3.25,27.37.91,8.78,1.76,17.79,2.57,27.03.8,9.24,1.42,16.48,1.88,21.72l.34,4.79-34.55,23.6c0-11.17-.46-22.41-1.37-33.7-.91-11.29-2.97-24.34-6.16-39.17-1.6-7.07-3.65-12.94-6.16-17.62-2.51-4.67-5.93-7.01-10.26-7.01s-9.01,1.71-14.03,5.13c-5.02,3.42-11.52,9.58-19.5,18.47-13.23,14.14-23.04,26.57-29.42,37.29-6.39,10.72-11.86,21.67-16.42,32.84l-4.79.68v-3.42c.69-17.1,1.25-33.12,1.71-48.06.45-14.93.68-28.79.68-41.56,0-28.28-.51-50-1.54-65.17-1.03-15.16-2.11-25.03-3.25-29.59-.68-3.42-1.88-6.5-3.59-9.24-1.71-2.74-4.74-4.11-9.07-4.11-3.19,0-6.84,1.26-10.95,3.76l-1.71-2.74Z"/>
          <path id="Letter_l" data-name="Letter l" class="cls-4" d="M243.22,237.75c1.14-7.3,2.05-16.82,2.74-28.57.68-11.74,1.25-23.66,1.71-35.75.45-12.09.8-23.03,1.03-32.84.23-9.8.34-16.88.34-21.21,0-10.03-.23-23.49-.68-40.37-.23-9.35-.51-17.39-.85-24.12-.34-6.72-.74-11-1.2-12.83-1.14-3.88-2.91-6.55-5.3-8.04-2.39-1.48-4.62-2.22-6.67-2.22-2.74,0-5.93,1.03-9.58,3.08l-.68.34-1.37-3.42c2.28-1.59,5.53-3.82,9.75-6.67,4.22-2.85,9.01-5.99,14.37-9.41,5.36-3.42,9.58-6.1,12.66-8.04,3.08-1.94,4.96-3.02,5.64-3.25,4.56-2.96,8.43-4.45,11.63-4.45s5.47,1.37,6.84,4.11c1.37,2.74,2.05,5.93,2.05,9.58,0,1.37-.12,5.7-.34,13-.23,7.07-.34,11.18-.34,12.32,0,3.88-.12,7.87-.34,11.97v161.12l-41.39,25.66Z"/>
          <path id="Letter_A" data-name="Letter A" class="cls-4" d="M61.92,180.96c-5.25,13.23-8.55,24.97-9.92,35.23L0,240.14c14.82-23.49,27.88-47.38,39.17-71.67,11.29-24.29,24.8-55.47,40.54-93.56,4.33-10.26,7.12-17.39,8.38-21.38,1.25-3.99,2.34-8.49,3.25-13.51l40.37-21.21c3.87,14.83,9.24,31.7,16.08,50.63,6.84,18.93,14.54,37.97,23.09,57.13,8.55,19.16,16.64,35.64,24.29,49.43,7.64,13.8,13.97,23.21,18.99,28.22,3.87,3.88,7.53,5.81,10.95,5.81.23,0,.68-.11,1.37-.34h.68l1.37,2.74-31.81,21.21h-.34c-2.97,2.05-5.93,3.08-8.89,3.08-2.51,0-5.13-.86-7.87-2.57-2.74-1.71-5.93-5.53-9.58-11.46-3.42-5.47-6.9-11.57-10.43-18.3-3.54-6.72-7.47-14.54-11.8-23.43H61.92ZM70.13,158.04h68.07l-1.37-3.08c-5.47-12.32-10.66-24.46-15.57-36.43-4.91-11.97-10.43-27.31-16.59-46.01l-34.55,85.52Z"/>
        </g>
        <g id="Triathlon">
          <path class="cls-4" d="M95.93,299.39c4.84,1.34,10.2,2.16,16.07,2.47,3.61.21,9.07.31,16.38.31,8.76,0,16-.18,21.72-.54,5.72-.36,12.13-.95,19.24-1.78h.62l-9.43,10.2c-1.55,1.65-3.07,2.94-4.56,3.86-1.5.93-3.27,1.6-5.33,2.01-2.06.41-4.56.67-7.5.77-2.94.1-7.29.15-13.06.15-.21,5.26-.31,8.68-.31,10.28v9.2c0,7.73.05,14.5.16,20.32.1,5.82.31,10.9.62,15.22.1,2.16.26,3.92.46,5.26.21,1.34.46,2.83.77,4.48-3.19,1.96-6.65,4.15-10.36,6.57-3.71,2.42-7.37,4.92-10.97,7.5.41-3.2.77-7.24,1.08-12.13.31-4.89.54-9.89.7-14.99s.26-10.12.31-15.07c.05-4.95.08-9.74.08-14.37,0-9.07-.26-16.48-.77-22.26-6.18,0-12.39-.28-18.62-.85-6.24-.56-11.88-1.26-16.92-2.09l19.63-14.53Z"/>
          <path class="cls-4" d="M197.16,383c-2.58,1.55-5.59,3.48-9.04,5.8-3.45,2.32-6.72,4.61-9.82,6.88.21-2.37.41-5.87.62-10.51.2-4.64.39-9.43.54-14.37.15-4.95.26-9.38.31-13.29.05-3.91.08-6.34.08-7.26l-.15-35.86c-1.86.1-4.23.18-7.11.23-2.89.05-5.31.08-7.26.08v-2.63l11.59-11.13c3.91-.51,8.32-.98,13.21-1.39,4.89-.41,9.51-.62,13.83-.62,7.83,0,14.04.64,18.62,1.93,4.58,1.29,8.52,3.12,11.82,5.49,2.57,1.85,4.64,4.02,6.18,6.49,1.54,2.47,2.32,5.15,2.32,8.04s-.62,5.41-1.85,7.88c-1.24,2.47-2.81,4.66-4.71,6.57-1.91,1.91-3.74,3.48-5.49,4.71-1.75,1.24-3.5,2.37-5.25,3.4l-.46.31c1.65,2.89,3.48,5.93,5.49,9.12,2.01,3.2,4.04,6.34,6.11,9.43,2.06,3.09,3.97,5.87,5.72,8.35,1.75,2.47,2.94,4.12,3.55,4.95,1.34,1.75,2.63,3.22,3.86,4.41,1.24,1.19,2.42,1.78,3.55,1.78.72,0,1.44-.16,2.16-.46l.46,1.39-12.67,8.19c-2.89,1.96-5.05,2.94-6.49,2.94-1.24,0-2.37-.39-3.4-1.16-1.03-.77-2.01-1.78-2.94-3.01-1.65-2.47-2.89-4.38-3.71-5.72-.83-1.34-1.98-3.25-3.48-5.72-1.5-2.47-3.76-6.41-6.8-11.82-3.04-5.41-6.52-11.56-10.43-18.47,4.95-1.13,9.27-3.35,12.98-6.65,3.71-3.3,5.56-7.26,5.56-11.9,0-1.13-.15-2.34-.46-3.63-.31-1.29-.9-2.65-1.78-4.1-.88-1.44-2.16-2.78-3.86-4.02s-3.84-2.21-6.41-2.94c-2.58-.82-6.13-1.24-10.66-1.24-.52,0-1.24.05-2.16.16h-2.47l.31,69.4Z"/>
          <path class="cls-4" d="M267.49,395.68c.2-2.37.41-5.33.62-8.89.2-3.56.39-7.13.54-10.74.15-3.61.28-7.37.39-11.28.1-3.91.15-7.26.15-10.05,0-9.99-.34-18.52-1-25.58-.67-7.06-1.31-11.46-1.93-13.21-.31-.82-.67-1.49-1.08-2.01-.41-.51-.98-.77-1.7-.77-.41,0-.9.15-1.47.46-.57.31-1.37.88-2.4,1.7l-1.54-1.86,16.54-11.44.31-.16c1.96-1.44,3.42-2.42,4.41-2.94.98-.52,1.93-.77,2.86-.77,1.75,0,2.96.9,3.63,2.71.67,1.8,1,4.3,1,7.5l-.62,74.96-18.7,12.36Z"/>
          <path class="cls-4" d="M320.19,368.94c-2.37,5.98-3.86,11.28-4.48,15.92l-23.49,10.82c6.7-10.61,12.6-21.41,17.7-32.38,5.1-10.97,11.2-25.06,18.32-42.27,1.96-4.64,3.22-7.86,3.79-9.66.56-1.8,1.06-3.84,1.47-6.11l18.24-9.58c1.75,6.7,4.17,14.32,7.26,22.87,3.09,8.55,6.57,17.16,10.43,25.81,3.86,8.66,7.52,16.1,10.97,22.33,3.45,6.24,6.31,10.49,8.58,12.75,1.75,1.75,3.4,2.63,4.95,2.63.1,0,.31-.05.62-.15h.31l.62,1.24-14.37,9.58h-.15c-1.34.93-2.68,1.39-4.02,1.39-1.13,0-2.32-.39-3.55-1.16-1.24-.77-2.68-2.5-4.33-5.18-1.55-2.47-3.12-5.23-4.71-8.27-1.6-3.04-3.38-6.57-5.33-10.59h-38.8ZM323.9,358.58h30.76l-.62-1.39c-2.47-5.56-4.82-11.05-7.03-16.46-2.22-5.41-4.71-12.34-7.5-20.79l-15.61,38.64Z"/>
          <path class="cls-4" d="M397.78,299.39c4.84,1.34,10.2,2.16,16.07,2.47,3.61.21,9.07.31,16.38.31,8.76,0,16-.18,21.72-.54,5.72-.36,12.13-.95,19.24-1.78h.62l-9.43,10.2c-1.55,1.65-3.07,2.94-4.56,3.86-1.5.93-3.27,1.6-5.33,2.01-2.06.41-4.56.67-7.5.77-2.94.1-7.29.15-13.06.15-.21,5.26-.31,8.68-.31,10.28v9.2c0,7.73.05,14.5.16,20.32.1,5.82.31,10.9.62,15.22.1,2.16.26,3.92.46,5.26.21,1.34.46,2.83.77,4.48-3.19,1.96-6.65,4.15-10.36,6.57-3.71,2.42-7.37,4.92-10.97,7.5.41-3.2.77-7.24,1.08-12.13.31-4.89.54-9.89.7-14.99.15-5.1.26-10.12.31-15.07.05-4.95.08-9.74.08-14.37,0-9.07-.26-16.48-.77-22.26-6.18,0-12.39-.28-18.62-.85-6.24-.56-11.88-1.26-16.92-2.09l19.63-14.53Z"/>
          <path class="cls-4" d="M461.92,351.78l18.08-13.45v-6.49c0-7.11-.49-11.82-1.47-14.14-.98-2.32-2.4-3.48-4.25-3.48-.72,0-1.5.21-2.32.62-.83.41-1.49.83-2.01,1.24l-1.39-2.16,21.64-14.53c1.13-.82,2.16-1.24,3.09-1.24,1.85,0,3.04.88,3.55,2.63.51,1.75.77,4.48.77,8.19v28.28h42.35v-8.66c0-1.96-.03-3.71-.08-5.26-.05-1.54-.23-3.11-.54-4.71-.31-1.6-.8-2.91-1.47-3.94-.67-1.03-1.57-1.54-2.7-1.54-.72,0-1.65.26-2.78.77l-.15.16-.77-2.16,19.17-12.52c1.24-.82,2.16-1.24,2.78-1.24,1.65,0,2.71.77,3.17,2.32.46,1.55.7,3.45.7,5.72v77.74l-17.77,11.75c.2-4.33.33-8.66.39-12.98.05-4.33.08-9.12.08-14.37v-17.31h-42.35v33.08l-18.24,11.59c.62-12.57.93-27.2.93-43.89h-18.39Z"/>
          <path class="cls-4" d="M647.08,376.51l-15.92,16.23c-6.6-.82-16.49-1.34-29.68-1.55-2.27,0-5.02.05-8.27.16-3.25.1-6.05.31-8.42.62.93-7.11,1.52-14.17,1.78-21.17.26-7.01.39-13.39.39-19.17,0-7.52-.1-13.55-.31-18.08-.1-3.81-.31-7.16-.62-10.05-.31-2.88-.72-5.1-1.24-6.65-.41-.93-.88-1.7-1.39-2.32-.52-.62-1.24-.93-2.16-.93-.83,0-1.85.36-3.09,1.08-.21.1-.36.21-.46.31l-1.08-1.85,20.4-13.14c1.03-.62,1.85-1.03,2.47-1.24.62-.2,1.18-.31,1.7-.31,1.44,0,2.45.54,3.01,1.62.57,1.08.9,2.5,1,4.25v3.71c-.1,2.47-.15,5-.15,7.57l-1.55,61.52,43.59-.62Z"/>
          <path class="cls-4" d="M672.43,323.5c-1.96,2.37-3.38,5.02-4.25,7.96-.88,2.94-1.31,6.11-1.31,9.5,0,4.33.85,8.84,2.55,13.52,1.7,4.69,4.02,9.04,6.95,13.06,2.94,4.02,6.26,7.26,9.97,9.74,3.71,2.47,7.47,3.71,11.28,3.71,3.3,0,6.13-.8,8.5-2.4,2.37-1.6,4.27-3.71,5.72-6.34,1.44-2.63,2.47-5.51,3.09-8.66.62-3.14.93-6.26.93-9.35,0-5.77-.88-11.31-2.63-16.61-1.75-5.31-4.25-10.05-7.5-14.22-3.25-4.17-7.09-7.44-11.52-9.81-4.43-2.37-9.22-3.56-14.37-3.56-2.16,0-4.05.18-5.64.54-1.6.36-2.91.8-3.94,1.31l-.62-1.08c6.28-4.43,12-7.55,17.16-9.35,5.15-1.8,9.38-2.71,12.67-2.71,3.71,0,7.62.98,11.75,2.94,4.12,1.96,7.93,4.77,11.44,8.42,3.5,3.66,6.34,7.94,8.5,12.83,2.16,4.9,3.25,10.18,3.25,15.84s-1.14,11.16-3.4,17.08c-2.27,5.93-6.75,12.29-13.45,19.09-2.16,2.16-4.48,4.25-6.96,6.26-2.47,2.01-5.28,3.97-8.42,5.87-3.14,1.91-6.49,3.43-10.05,4.56-3.55,1.13-7.14,1.7-10.74,1.7-5.36,0-10.12-1.21-14.3-3.63-4.17-2.42-7.65-5.59-10.43-9.51-2.78-3.91-4.87-8.11-6.26-12.6-1.39-4.48-2.09-8.73-2.09-12.75,0-6.18,1.98-11.75,5.95-16.69,3.97-4.95,9.71-10.2,17.23-15.77l.93,1.08Z"/>
          <path class="cls-4" d="M752.65,299.54c1.03-.72,1.88-1.18,2.55-1.39.67-.21,1.31-.31,1.93-.31,1.24,0,2.88.59,4.95,1.78,2.06,1.19,4.22,2.63,6.49,4.33,2.27,1.7,4.38,3.38,6.34,5.02,1.96,1.65,3.97,3.45,6.03,5.41l.16.15c8.96,8.24,15.12,13.91,18.47,17,3.35,3.09,6.36,5.98,9.04,8.66,2.68,2.68,5.23,5.33,7.65,7.96,2.42,2.63,5.33,6,8.73,10.12.1-1.65.18-4.51.23-8.58.05-4.07.08-7.34.08-9.81,0-4.95-.29-10.43-.85-16.46-.57-6.03-1.37-11-2.4-14.91l19.01-12.67-1.85,87.48-14.37,10.66c-1.03-4.12-2.47-7.93-4.33-11.44-1.86-3.5-4.54-7.29-8.04-11.36-3.5-4.07-7.94-8.73-13.29-13.99-5.36-5.25-13.04-12.62-23.03-22.1-.31,7.21-.46,14.84-.46,22.87,0,4.95.1,9.25.31,12.91.2,3.66.51,6.98.93,9.97-3.19,2.06-6.72,4.59-10.59,7.57-3.86,2.99-6.93,5.41-9.2,7.26.31-3.71.64-8.47,1-14.3.36-5.82.7-12.08,1-18.78.31-6.7.56-13.52.77-20.48.21-6.96.31-13.32.31-19.09-.21-.31-1.14-1.13-2.78-2.47-1.65-1.34-3.43-2.68-5.33-4.02-1.91-1.34-3.84-2.52-5.8-3.56-1.96-1.03-3.56-1.54-4.79-1.54-1.34,0-2.68.36-4.02,1.08h-.15l-1.08-1.54,16.38-11.44Z"/>
        </g>
        <path id="Flower" class="cls-2" d="M429.47,93.71c-3.76-7.06-5.96-13.04-7.12-16.47-.22-.67-.38-1.16-.48-1.47-3.82-11.79-5.6-24.07-5.5-36.78.04-5.04.84-10.02,2.32-14.84,3.89-12.71,12.34-20.33,25.66-21.57,12.55-1.17,23.58,2.69,32.35,12.02,5.73,6.08,7.83,13.66,8.08,21.77.35,11.43-2.83,22.09-7.74,32.29-3.32,6.89-6.69,13.76-9.97,20.67-.61,1.3-1.54,2.63-.94,4.3,1.55.28,1.89-.94,2.34-1.9,1.52-3.18,2.83-6.46,3.73-9.85,1.74-6.63,5.26-12.13,10.02-16.96,11.14-11.31,23.8-20.09,39.53-23.65,10.05-2.28,19.52-.99,27.73,5.76,5.06,4.16,8.47,9.58,10.99,15.56,3.89,9.23,6.22,18.9,6.46,28.89.52,21.65-11.31,36.41-31.04,43.67-6.29,2.32-12.59,2.96-19.2,1.27-5.65-1.44-11.2-.83-16.3,2.63.46,1.19,1.51,1.27,2.37,1.6,5.04,1.91,10.13,3.73,15.13,5.76,6.91,2.81,13.32,6.47,18.7,11.76,7.86,7.72,9.9,16.9,6.86,27.32-2.04,6.98-5.81,13.06-10.18,18.78-8.84,11.58-19.6,21.21-30.85,30.33-4.98,4.03-9.98,8.06-15.67,11.1-4.12,2.2-8.38,3.92-13.15,4.24-5.98.41-10.8-1.77-14.72-6.14-4.47-5-6.83-11.08-8.62-17.4-2.8-9.84-3.84-19.95-4.49-30.12-.69-10.93-.29-21.86,0-32.79.03-1.2,0-2.4,0-4.12-2.39,2.05-3.64,3.99-3.91,6.65-.59,6.02-.57,12.05-.8,18.08-.35,9.29-.85,18.58-2.88,27.7-1.15,5.16-2.6,10.22-5.31,14.83-5.11,8.69-12.63,12.45-22.55,10.44-16.41-3.33-32.38-8.15-47.22-16.12-4.56-2.45-8.77-5.4-12.44-9.08-7.73-7.74-9.18-16.84-4.17-26.53,4.19-8.1,10.65-14.23,17.57-19.94,7.19-5.93,14.98-11,22.78-16.08,1.77-1.15,3.61-2.23,5.5-4.16-2.78.11-4.54,1.35-6.34,2.36-4.71,2.64-9.33,5.45-14.05,8.07-6.81,3.79-13.82,7.16-21.34,9.36-3.5,1.03-7.06,1.76-10.72,1.94-11.83.58-20.23-4.7-25.69-15.02-3.63-6.87-5.41-14.31-6.49-21.92-1.09-7.72-1.73-15.49-1.43-23.3.25-6.68,1.13-13.26,3.96-19.43,4.23-9.25,11.6-13.9,21.57-14.64,8.81-.65,17.22,1.32,25.48,4.15,8.57,2.94,16.82,6.63,24.72,11.06,9.42,5.28,18.9,10.49,27.8,16.63,2.38,1.64,4.57,3.54,6.91,5.24,4.23,3.07,5.8,7.45,6.17,12.38.25,3.36-.6,4.72-3.74,5.98-2.05.82-2.98,2.16-2.91,4.31.01.38-.05.76.01,1.13.27,1.53-.68,3.39,1.07,4.51,2.06,1.32,4.27,2.17,6.78,1.52.6-.15,1.24-.33,1.76-.66,3.49-2.2,6.7-1.15,9.88.75,4.85,2.9,7.22,7,8.06,14.11,1.38.46,1.59-.93,2.23-1.52,2.75-2.53,4.92-2.86,8.18-1.08,2.85,1.56,2.94,1.59,4.67-1.02,1.8-2.72,3.38-5.59,5.22-8.29,1.84-2.69,3.72-5.4,6.9-6.76,1.06-.17,1.9-.46,2.46-.71,1.29-.55,2.59-1.07,2.9-2.33.17-.7-.01-1.47-.07-1.65-.06-.17-.09-.56-.69-1.32-.76-.97-1.19-1.53-1.98-1.93-.64-.32-.9-.25-1.91-.48-1.09-.24-2.73-.6-4.08-2.03-.74-.79-1.17-1.53-1.39-2.07-.14-.35-.53-1.21-.75-3.11-.12-1-.23-2.04-.22-3.54.02-1.89.21-2.31.56-5.55.32-2.92.36-4.13-.44-4.71-.69-.5-1.8-.26-2.04-.18-.98.3-1.34.95-1.96,1.73-.23.29-1.85,2.33-2.81,3.31-1.72,1.75-3.69,2.47-5.41,3.11-1.07.39-2.51.76-4.21.89,0,0-2.79.33-5.48-.76-3.09-1.26-4.35-3.75-7.85-9.74-4.9-8.37-4.12-6.38-6.16-10.21Z"/>
        <g id="Swimmer">
          <path id="Swimmer_body" data-name="Swimmer body" class="cls-3" d="M429.47,93.71c3.47,4.59,8.27,6.63,13.8,7.56,7.66,1.29,15.27,2.9,22.94,4.19,2.78.47,4.14,1.67,4.39,4.59.24,2.75,1.74,5.21,2.75,7.77.96,2.45,1.83,4.88,1.97,7.59.1,1.96.66,4,1.45,5.81,1.94,4.47,1.31,8.76-.52,13.24-2.7-2.71-3.38-6.44-5.26-9.48-2.2-5.87-4.76-11.6-6.54-17.65-.88-2.99-3.75-4.69-6.77-4.04-7.75,1.68-15.75,1.58-23.45,3.53-2.42.62-4.33-.03-6.05-1.93-3.96-4.38-8.14-8.56-12.12-12.92-14.55-15.92-32.01-27.24-52.52-34-10.24-3.37-20.31-7.24-30.46-10.91-1.75-.63-3.45-1.37-5.87-2.35,3.78-.91,6.77.07,9.63.68,18.55,3.93,36.83,8.84,54.63,15.42,3.43,1.27,6.69,2.85,9.76,4.83,9.4,6.04,18.82,12.04,28.24,18.06Z"/>
          <path id="Swimmer_head" data-name="Swimmer head" class="cls-3" d="M438.78,129.64c.18-7.53,6.07-12.64,13.52-11.68,2.02.26,3.86.98,5.36,2.47,3.94,3.89,4.65,12.24,1.41,16.72-2.99,4.12-7.87,5.86-12.2,4.35-5.05-1.76-8.23-6.42-8.1-11.86Z"/>
        </g>
        <g id="Runner">
          <path id="Runner_body" data-name="Runner body" class="cls-3" d="M505.52,126.1c0-6.93-.05-13.53.01-20.14.08-7.66.06-15.32-.34-22.97-.05-.87-.1-1.76-.26-2.61-.19-1.05-.85-1.52-1.89-1.04-3.78,1.75-7.34,3.83-10.1,7.05-1.06,1.24-1.2,2.64-.79,4.23.81,3.15,1.47,6.35,2.19,9.53.47,2.08.56,4.16.33,6.37-1.25-.32-1.28-1.29-1.57-2.05-2.26-5.98-4.69-11.88-6.21-18.13-.64-2.61-.06-4.5,1.96-5.93,5.02-3.55,10-7.16,15.47-10.03,2.48-1.3,4.53-1.22,6.76.86,5.51,5.14,11.69,9.49,17.1,14.76,2.44,2.38,4.31,2.31,6.88-.15,2.45-2.34,4.67-4.91,6.98-7.39.86-.92,1.66-2.16,3.07-.89,1.22,1.11.68,2.26-.17,3.32-.31.39-.63.79-.99,1.13-3.24,3.06-5.61,6.72-7.57,10.7-1.99,4.05-3.1,4.34-7.07,2.48-2.16-1.01-4.34-1.97-6.56-2.83-2.67-1.04-3.54-.71-4.81,1.84-1.91,3.83-3.13,7.92-4.39,11.99-1.63,5.27-3.21,10.57-5.51,15.6-.65,1.42-1.19,2.95-2.52,4.29Z"/>
          <path id="Runner_head" data-name="Runner head" class="cls-3" d="M534.35,64.44c-.06.32-.13.69-.21,1.05-.64,3.2-4.85,7.01-8.51,7.7-3.19.6-7.04-1.23-8.99-4.27-3.35-5.25,1.08-13.82,7.34-14.15.61-.03,1.27.05,1.82.28,3.74,1.57,6.39,4.29,8.16,7.9.22.44.25.96.38,1.5Z"/>
        </g>
        <g id="Cyclist">
          <path id="Cyclist_back" data-name="Cyclist back" class="cls-3" d="M482.7,182.32c0-3.76-.16-7.53.04-11.28.24-4.39,1.35-5.38,5.62-6.05,3.37-.53,6.76-.44,10.14-.28,2.41.12,4.01-.63,4.88-3.11.88-2.49,2.11-3.19,3.75-2.86,2.45.5,4.46,3.07,4.29,5.48-.13,1.91-1.87,3.85-3.79,4.08-.99.12-2.01.02-3.01.02-7.06.03-11.85,3.32-14.38,9.97-1.52,4-2,8.27-2.97,12.41-.26,1.1-.57,2.2-.67,3.31-.44,4.65-2.98,7.98-6.79,10.29-6.95,4.22-14.26,6.16-22.16,2.57-8.78-3.99-12.34-13.07-8.71-22.4,1.91-4.91,6.36-6.96,10.96-8.44,5.53-1.77,10.85-1.5,15.6,2.49,1.96,1.65,4.23,2.93,6.36,4.38.28-.2.56-.4.83-.6ZM464.44,180.29c-1.94-.05-4.94.73-7.68,2.42-5.1,3.14-7.77,10.02-2.97,16.27,6.44,8.38,19.08,7.72,24.56-1.32,2.44-4.02,1.98-9.05-1.19-12.56-3.06-3.39-6.98-4.74-12.73-4.8Z"/>
          <path id="Cyclist_front" data-name="Cyclist front" class="cls-3" d="M509.63,209.09c-2.16-.07-4.28-.44-6.27-1.19-9.12-3.44-13.54-10.77-9.65-21.09,2.52-6.66,7.51-11.16,14.77-11.82,7.21-.65,12.98,2.64,16.74,8.8,6.5,10.64.11,23.57-12.22,25.03-1.12.13-2.25.18-3.37.27ZM510.21,180.3c-1,.05-2.01.04-3,.17-5.79.8-9.91,4.42-10.82,9.47-.95,5.23,1.67,10.37,6.71,13.14,6.91,3.81,15.33,1.45,20.02-5.61,2.71-4.08,2.44-8.38-.83-12.07-3.2-3.62-7.36-5.03-12.07-5.1Z"/>
        </g>
      </g>
    </g>
  </g>
</svg>