<?xml version="1.0" encoding="UTF-8"?>
<svg id="any_background" xmlns="http://www.w3.org/2000/svg" viewBox="0 0 911.99 250">
  <defs>
    <style>
      .cls-1, .cls-2 {
        fill: #ee800c;
      }

      .cls-3 {
        fill: #385da8;
      }

      .cls-3, .cls-2 {
        fill-rule: evenodd;
      }
    </style>
  </defs>
  <g id="full-4" data-name="full">
    <g id="Letters">
      <path class="cls-1" d="M910.28,212.04c-10.04-21.89-19.16-40.76-27.37-56.61-8.21-15.85-17.68-31.53-28.39-47.04-5.25-7.3-9.64-12.49-13.17-15.56-3.54-3.08-6.79-4.62-9.75-4.62-3.19,0-6.96,1.6-11.29,4.79-1.83,1.37-4.91,3.42-9.24,6.16-7.3,5.02-11.97,8.21-14.03,9.58-2.05,1.37-5.93,3.76-11.63,7.18l2.39,3.42.69-.34c2.05-1.14,3.87-1.99,5.47-2.57,1.59-.57,3.19-.86,4.79-.86,4.79,0,9.92,2.51,15.39,7.53,5.47,5.02,12.66,14.94,21.55,29.76-.91-.45-2-.74-3.25-.85-1.26-.11-2.45-.17-3.59-.17-7.3,0-15.62,1.6-24.97,4.79-9.35,3.2-18.36,7.41-27.03,12.66-8.67,5.25-15.68,10.95-21.04,17.1-5.36,6.16-8.04,11.97-8.04,17.45,0,3.65,1.2,7.41,3.59,11.29,2.4,3.88,5.7,7.41,9.92,10.6,4.22,3.2,9.07,5.76,14.54,7.7,5.47,1.94,11.17,2.91,17.1,2.91,3.42,0,6.5-.29,9.24-.86,2.74-.57,5.99-1.88,9.75-3.93,3.76-2.05,8.38-5.3,13.85-9.75,5.47-4.45,11.97-10.32,19.5-17.62l-1.71-2.05c-1.83,1.37-4.45,2.51-7.87,3.42-3.42.91-7.76,1.37-13,1.37-11.63,0-21.33-2.68-29.08-8.04-7.76-5.36-11.63-11.68-11.63-18.98,0-4.79,1.94-7.87,5.82-9.24,3.88-1.37,8.09-2.05,12.66-2.05,19.61,0,35.63,5.53,48.06,16.59,12.43,11.07,22.29,28.79,29.59,53.2l33.87-22.24c-.68-1.82-1.26-3.19-1.71-4.11Z"/>
      <path class="cls-1" d="M724.01,187.58c-.8-9.24-1.66-18.24-2.57-27.03-.91-8.78-2-17.9-3.25-27.37-1.26-9.46-2.57-17.5-3.93-24.12-1.37-7.07-3.31-11.86-5.82-14.37-2.51-2.51-5.47-3.76-8.89-3.76-2.74,0-5.65.8-8.72,2.39-3.08,1.6-6.9,4.45-11.46,8.55-4.1,3.65-8.89,8.33-14.37,14.03-5.47,5.7-10.95,11.75-16.42,18.13-5.47,6.39-10.78,12.78-15.91,19.16-5.13,6.39-9.64,12.2-13.51,17.45l1.03-37.97c.68-28.28,1.03-43.21,1.03-44.81.22-8.43.34-15.74.34-21.89,0-10.72-.17-21.89-.51-33.52s-.74-18.81-1.2-21.55c-.46-2.96-1.26-5.18-2.39-6.67-1.15-1.48-3.08-2.22-5.82-2.22-2.05,0-4.16.57-6.33,1.71-2.17,1.14-6.22,3.54-12.14,7.18-13.23,8.89-25.66,16.76-37.29,23.6l1.71,2.74c4.11-2.51,7.75-3.76,10.95-3.76,4.33,0,7.35,1.37,9.07,4.11,1.71,2.74,2.91,5.82,3.59,9.24,1.14,4.56,2.22,14.43,3.25,29.59,1.03,15.17,1.54,36.89,1.54,65.17,0,12.77-.23,26.63-.68,41.56-.46,14.94-1.03,30.96-1.71,48.06v3.42l4.79-.68c4.56-11.17,10.03-22.12,16.42-32.84,6.38-10.72,16.19-23.14,29.42-37.29,7.98-8.89,14.48-15.05,19.5-18.47,5.01-3.42,9.69-5.13,14.03-5.13s7.75,2.34,10.26,7.01c2.51,4.68,4.56,10.55,6.16,17.62,3.19,14.83,5.24,27.88,6.16,39.17.91,11.29,1.37,22.52,1.37,33.7l34.55-23.6-.34-4.79c-.46-5.24-1.08-12.49-1.88-21.72Z"/>
      <path class="cls-1" d="M276.74-.05c-3.2,0-7.07,1.49-11.63,4.45-.68.23-2.57,1.32-5.64,3.25-3.08,1.94-7.3,4.62-12.66,8.04-5.36,3.42-10.15,6.56-14.37,9.41-4.22,2.85-7.47,5.08-9.75,6.67l1.37,3.42.68-.34c3.65-2.05,6.84-3.08,9.58-3.08,2.05,0,4.28.74,6.67,2.22,2.39,1.49,4.16,4.16,5.3,8.04.46,1.83.86,6.1,1.2,12.83.34,6.73.63,14.77.85,24.12.45,16.88.68,30.33.68,40.37,0,4.34-.12,11.41-.34,21.21-.23,9.81-.57,20.75-1.03,32.84-.46,12.09-1.03,24-1.71,35.75-.68,11.75-1.6,21.27-2.74,28.57l41.39-25.66V50.92c.22-4.11.34-8.09.34-11.97,0-1.14.11-5.24.34-12.32.22-7.3.34-11.63.34-13,0-3.65-.68-6.84-2.05-9.58-1.37-2.74-3.65-4.11-6.84-4.11Z"/>
      <path class="cls-1" d="M226.46,209.64c-.68.23-1.14.34-1.37.34-3.42,0-7.07-1.93-10.95-5.81-5.02-5.01-11.35-14.42-18.99-28.22-7.64-13.79-15.74-30.27-24.29-49.43-8.55-19.16-16.25-38.2-23.09-57.13-6.84-18.93-12.2-35.8-16.08-50.63l-40.37,21.21c-.91,5.02-2,9.53-3.25,13.51-1.26,3.99-4.05,11.12-8.38,21.38-15.74,38.09-29.25,69.27-40.54,93.56-11.29,24.29-24.35,48.18-39.17,71.67l52-23.95c1.37-10.26,4.67-22.01,9.92-35.23h85.86c4.33,8.89,8.26,16.71,11.8,23.43,3.53,6.73,7.01,12.83,10.43,18.3,3.64,5.93,6.84,9.75,9.58,11.46,2.74,1.71,5.36,2.57,7.87,2.57,2.96,0,5.93-1.03,8.89-3.08h.34l31.81-21.21-1.37-2.74h-.68ZM70.13,157.99l34.55-85.52c6.16,18.7,11.68,34.04,16.59,46.01,4.9,11.97,10.09,24.12,15.57,36.43l1.37,3.08h-68.07Z"/>
    </g>
    <path id="Flower" class="cls-3" d="M429.47,93.71c-3.76-7.06-5.96-13.04-7.12-16.47-.22-.67-.38-1.16-.48-1.47-3.82-11.79-5.6-24.07-5.5-36.78.04-5.04.84-10.02,2.32-14.84,3.89-12.71,12.34-20.33,25.66-21.57,12.55-1.17,23.58,2.69,32.35,12.02,5.73,6.08,7.83,13.66,8.08,21.77.35,11.43-2.83,22.09-7.74,32.29-3.32,6.89-6.69,13.76-9.97,20.67-.61,1.3-1.54,2.63-.94,4.3,1.55.28,1.89-.94,2.34-1.9,1.52-3.18,2.83-6.46,3.73-9.85,1.74-6.63,5.26-12.13,10.02-16.96,11.14-11.31,23.8-20.09,39.53-23.65,10.05-2.28,19.52-.99,27.73,5.76,5.06,4.16,8.47,9.58,10.99,15.56,3.89,9.23,6.22,18.9,6.46,28.89.52,21.65-11.31,36.41-31.04,43.67-6.29,2.32-12.59,2.96-19.2,1.27-5.65-1.44-11.2-.83-16.3,2.63.46,1.19,1.51,1.27,2.37,1.6,5.04,1.91,10.13,3.73,15.13,5.76,6.91,2.81,13.32,6.47,18.7,11.76,7.86,7.72,9.9,16.9,6.86,27.32-2.04,6.98-5.81,13.06-10.18,18.78-8.84,11.58-19.6,21.21-30.85,30.33-4.98,4.03-9.98,8.06-15.67,11.1-4.12,2.2-8.38,3.92-13.15,4.24-5.98.41-10.8-1.77-14.72-6.14-4.47-5-6.83-11.08-8.62-17.4-2.8-9.84-3.84-19.95-4.49-30.12-.69-10.93-.29-21.86,0-32.79.03-1.2,0-2.4,0-4.12-2.39,2.05-3.64,3.99-3.91,6.65-.59,6.02-.57,12.05-.8,18.08-.35,9.29-.85,18.58-2.88,27.7-1.15,5.16-2.6,10.22-5.31,14.83-5.11,8.69-12.63,12.45-22.55,10.44-16.41-3.33-32.38-8.15-47.22-16.12-4.56-2.45-8.77-5.4-12.44-9.08-7.73-7.74-9.18-16.84-4.17-26.53,4.19-8.1,10.65-14.23,17.57-19.94,7.19-5.93,14.98-11,22.78-16.08,1.77-1.15,3.61-2.23,5.5-4.16-2.78.11-4.54,1.35-6.34,2.36-4.71,2.64-9.33,5.45-14.05,8.07-6.81,3.79-13.82,7.16-21.34,9.36-3.5,1.03-7.06,1.76-10.72,1.94-11.83.58-20.23-4.7-25.69-15.02-3.63-6.87-5.41-14.31-6.49-21.92-1.09-7.72-1.73-15.49-1.43-23.3.25-6.68,1.13-13.26,3.96-19.43,4.23-9.25,11.6-13.9,21.57-14.64,8.81-.65,17.22,1.32,25.48,4.15,8.57,2.94,16.82,6.63,24.72,11.06,9.42,5.28,18.9,10.49,27.8,16.63,2.38,1.64,4.57,3.54,6.91,5.24,4.23,3.07,5.8,7.45,6.17,12.38.25,3.36-.6,4.72-3.74,5.98-2.05.82-2.98,2.16-2.91,4.31.01.38-.05.76.01,1.13.27,1.53-.68,3.39,1.07,4.51,2.06,1.32,4.27,2.17,6.78,1.52.6-.15,1.24-.33,1.76-.66,3.49-2.2,6.7-1.15,9.88.75,4.85,2.9,7.22,7,8.06,14.11,1.38.46,1.59-.93,2.23-1.52,2.75-2.53,4.92-2.86,8.18-1.08,2.85,1.56,2.94,1.59,4.67-1.02,1.8-2.72,3.38-5.59,5.22-8.29,1.84-2.69,3.72-5.4,6.9-6.76,1.06-.17,1.9-.46,2.46-.71,1.29-.55,2.59-1.07,2.9-2.33.17-.7-.01-1.47-.07-1.65-.06-.17-.09-.56-.69-1.32-.76-.97-1.19-1.53-1.98-1.93-.64-.32-.9-.25-1.91-.48-1.09-.24-2.73-.6-4.08-2.03-.74-.79-1.17-1.53-1.39-2.07-.14-.35-.53-1.21-.75-3.11-.12-1-.23-2.04-.22-3.54.02-1.89.21-2.31.56-5.55.32-2.92.36-4.13-.44-4.71-.69-.5-1.8-.26-2.04-.18-.98.3-1.34.95-1.96,1.73-.23.29-1.85,2.33-2.81,3.31-1.72,1.75-3.69,2.47-5.41,3.11-1.07.39-2.51.76-4.21.89,0,0-2.79.33-5.48-.76-3.09-1.26-4.35-3.75-7.85-9.74-4.9-8.37-4.12-6.38-6.16-10.21Z"/>
    <g id="Swimmer">
      <path id="Swimmer_body" data-name="Swimmer body" class="cls-2" d="M429.47,93.71c3.47,4.59,8.27,6.63,13.8,7.56,7.66,1.29,15.27,2.9,22.94,4.19,2.78.47,4.14,1.67,4.39,4.59.24,2.75,1.74,5.21,2.75,7.77.96,2.45,1.83,4.88,1.97,7.59.1,1.96.66,4,1.45,5.81,1.94,4.47,1.31,8.76-.52,13.24-2.7-2.71-3.38-6.44-5.26-9.48-2.2-5.87-4.76-11.6-6.54-17.65-.88-2.99-3.75-4.69-6.77-4.04-7.75,1.68-15.75,1.58-23.45,3.53-2.42.62-4.33-.03-6.05-1.93-3.96-4.38-8.14-8.56-12.12-12.92-14.55-15.92-32.01-27.24-52.52-34-10.24-3.37-20.31-7.24-30.46-10.91-1.75-.63-3.45-1.37-5.87-2.35,3.78-.91,6.77.07,9.63.68,18.55,3.93,36.83,8.84,54.63,15.42,3.43,1.27,6.69,2.85,9.76,4.83,9.4,6.04,18.82,12.04,28.24,18.06Z"/>
      <path id="Swimmer_head" data-name="Swimmer head" class="cls-2" d="M438.78,129.64c.18-7.53,6.07-12.64,13.52-11.68,2.02.26,3.86.98,5.36,2.47,3.94,3.89,4.65,12.24,1.41,16.72-2.99,4.12-7.87,5.86-12.2,4.35-5.05-1.76-8.23-6.42-8.1-11.86Z"/>
    </g>
    <g id="Runner">
      <path id="Runner_body" data-name="Runner body" class="cls-2" d="M505.52,126.1c0-6.93-.05-13.53.01-20.14.08-7.66.06-15.32-.34-22.97-.05-.87-.1-1.76-.26-2.61-.19-1.05-.85-1.52-1.89-1.04-3.78,1.75-7.34,3.83-10.1,7.05-1.06,1.24-1.2,2.64-.79,4.23.81,3.15,1.47,6.35,2.19,9.53.47,2.08.56,4.16.33,6.37-1.25-.32-1.28-1.29-1.57-2.05-2.26-5.98-4.69-11.88-6.21-18.13-.64-2.61-.06-4.5,1.96-5.93,5.02-3.55,10-7.16,15.47-10.03,2.48-1.3,4.53-1.22,6.76.86,5.51,5.14,11.69,9.49,17.1,14.76,2.44,2.38,4.31,2.31,6.88-.15,2.45-2.34,4.67-4.91,6.98-7.39.86-.92,1.66-2.16,3.07-.89,1.22,1.11.68,2.26-.17,3.32-.31.39-.63.79-.99,1.13-3.24,3.06-5.61,6.72-7.57,10.7-1.99,4.05-3.1,4.34-7.07,2.48-2.16-1.01-4.34-1.97-6.56-2.83-2.67-1.04-3.54-.71-4.81,1.84-1.91,3.83-3.13,7.92-4.39,11.99-1.63,5.27-3.21,10.57-5.51,15.6-.65,1.42-1.19,2.95-2.52,4.29Z"/>
      <path id="Runner_head" data-name="Runner head" class="cls-2" d="M534.35,64.44c-.06.32-.13.69-.21,1.05-.64,3.2-4.85,7.01-8.51,7.7-3.19.6-7.04-1.23-8.99-4.27-3.35-5.25,1.08-13.82,7.34-14.15.61-.03,1.27.05,1.82.28,3.74,1.57,6.39,4.29,8.16,7.9.22.44.25.96.38,1.5Z"/>
    </g>
    <g id="Cyclist">
      <path id="Cyclist_back" data-name="Cyclist back" class="cls-2" d="M482.7,182.32c0-3.76-.16-7.53.04-11.28.24-4.39,1.35-5.38,5.62-6.05,3.37-.53,6.76-.44,10.14-.28,2.41.12,4.01-.63,4.88-3.11.88-2.49,2.11-3.19,3.75-2.86,2.45.5,4.46,3.07,4.29,5.48-.13,1.91-1.87,3.85-3.79,4.08-.99.12-2.01.02-3.01.02-7.06.03-11.85,3.32-14.38,9.97-1.52,4-2,8.27-2.97,12.41-.26,1.1-.57,2.2-.67,3.31-.44,4.65-2.98,7.98-6.79,10.29-6.95,4.22-14.26,6.16-22.16,2.57-8.78-3.99-12.34-13.07-8.71-22.4,1.91-4.91,6.36-6.96,10.96-8.44,5.53-1.77,10.85-1.5,15.6,2.49,1.96,1.65,4.23,2.93,6.36,4.38.28-.2.56-.4.83-.6ZM464.44,180.29c-1.94-.05-4.94.73-7.68,2.42-5.1,3.14-7.77,10.02-2.97,16.27,6.44,8.38,19.08,7.72,24.56-1.32,2.44-4.02,1.98-9.05-1.19-12.56-3.06-3.39-6.98-4.74-12.73-4.8Z"/>
      <path id="Cyclist_front" data-name="Cyclist front" class="cls-2" d="M509.63,209.09c-2.16-.07-4.28-.44-6.27-1.19-9.12-3.44-13.54-10.77-9.65-21.09,2.52-6.66,7.51-11.16,14.77-11.82,7.21-.65,12.98,2.64,16.74,8.8,6.5,10.64.11,23.57-12.22,25.03-1.12.13-2.25.18-3.37.27ZM510.21,180.3c-1,.05-2.01.04-3,.17-5.79.8-9.91,4.42-10.82,9.47-.95,5.23,1.67,10.37,6.71,13.14,6.91,3.81,15.33,1.45,20.02-5.61,2.71-4.08,2.44-8.38-.83-12.07-3.2-3.62-7.36-5.03-12.07-5.1Z"/>
    </g>
  </g>
</svg>