<?xml version="1.0" encoding="UTF-8"?>
<svg id="alt_dark_background" xmlns="http://www.w3.org/2000/svg" viewBox="0 0 320 320">
  <defs>
    <style>
      .cls-1 {
        fill: #fff;
      }

      .cls-1, .cls-2 {
        fill-rule: evenodd;
      }

      .cls-2 {
        fill: #ee800c;
      }
    </style>
  </defs>
  <g id="flower_margin-3" data-name="flower_margin">
    <g>
      <path id="Flower" class="cls-1" d="M149.28,133.12c-3.76-7.06-5.96-13.04-7.12-16.47-.22-.67-.38-1.16-.48-1.47-3.82-11.79-5.6-24.07-5.5-36.78.04-5.04.84-10.02,2.32-14.84,3.89-12.71,12.34-20.33,25.66-21.57,12.55-1.17,23.58,2.69,32.35,12.02,5.73,6.08,7.83,13.66,8.08,21.77.35,11.43-2.83,22.09-7.74,32.29-3.32,6.89-6.69,13.76-9.97,20.67-.61,1.3-1.54,2.63-.94,4.3,1.55.28,1.89-.94,2.34-1.9,1.52-3.18,2.83-6.46,3.73-9.85,1.74-6.63,5.26-12.13,10.02-16.96,11.14-11.31,23.8-20.09,39.53-23.65,10.05-2.28,19.52-.99,27.73,5.76,5.06,4.16,8.47,9.58,10.99,15.56,3.89,9.23,6.22,18.9,6.46,28.89.52,21.65-11.31,36.41-31.04,43.67-6.29,2.32-12.59,2.96-19.2,1.27-5.65-1.44-11.2-.83-16.3,2.63.46,1.19,1.51,1.27,2.37,1.6,5.04,1.91,10.13,3.73,15.13,5.76,6.91,2.81,13.32,6.47,18.7,11.76,7.86,7.72,9.9,16.9,6.86,27.32-2.04,6.98-5.81,13.06-10.18,18.78-8.84,11.58-19.6,21.21-30.85,30.33-4.98,4.03-9.98,8.06-15.67,11.1-4.12,2.2-8.38,3.92-13.15,4.24-5.98.41-10.8-1.77-14.72-6.14-4.47-5-6.83-11.08-8.62-17.4-2.8-9.84-3.84-19.95-4.49-30.12-.69-10.93-.29-21.86,0-32.79.03-1.2,0-2.4,0-4.12-2.39,2.05-3.64,3.99-3.91,6.65-.59,6.02-.57,12.05-.8,18.08-.35,9.29-.85,18.58-2.88,27.7-1.15,5.16-2.6,10.22-5.31,14.83-5.11,8.69-12.63,12.45-22.55,10.44-16.41-3.33-32.38-8.15-47.22-16.12-4.56-2.45-8.77-5.4-12.44-9.08-7.73-7.74-9.18-16.84-4.17-26.53,4.19-8.1,10.65-14.23,17.57-19.94,7.19-5.93,14.98-11,22.78-16.08,1.77-1.15,3.61-2.23,5.5-4.16-2.78.11-4.54,1.35-6.34,2.36-4.71,2.64-9.33,5.45-14.05,8.07-6.81,3.79-13.82,7.16-21.34,9.36-3.5,1.03-7.06,1.76-10.72,1.94-11.83.58-20.23-4.7-25.69-15.02-3.63-6.87-5.41-14.31-6.49-21.92-1.09-7.72-1.73-15.49-1.43-23.3.25-6.68,1.13-13.26,3.96-19.43,4.23-9.25,11.6-13.9,21.57-14.64,8.81-.65,17.22,1.32,25.48,4.15,8.57,2.94,16.82,6.63,24.72,11.06,9.42,5.28,18.9,10.49,27.8,16.63,2.38,1.64,4.57,3.54,6.91,5.24,4.23,3.07,5.8,7.45,6.17,12.38.25,3.36-.6,4.72-3.74,5.98-2.05.82-2.98,2.16-2.91,4.31.01.38-.05.76.01,1.13.27,1.53-.68,3.39,1.07,4.51,2.06,1.32,4.27,2.17,6.78,1.52.6-.15,1.24-.33,1.76-.66,3.49-2.2,6.7-1.15,9.88.75,4.85,2.9,7.22,7,8.06,14.11,1.38.46,1.59-.93,2.23-1.52,2.75-2.53,4.92-2.86,8.18-1.08,2.85,1.56,2.94,1.59,4.67-1.02,1.8-2.72,3.38-5.59,5.22-8.29,1.84-2.69,3.72-5.4,6.9-6.76,1.06-.17,1.9-.46,2.46-.71,1.29-.55,2.59-1.07,2.9-2.33.17-.7-.01-1.47-.07-1.65-.06-.17-.09-.56-.69-1.32-.76-.97-1.19-1.53-1.98-1.93-.64-.32-.9-.25-1.91-.48-1.09-.24-2.73-.6-4.08-2.03-.74-.79-1.17-1.53-1.39-2.07-.14-.35-.53-1.21-.75-3.11-.12-1-.23-2.04-.22-3.54.02-1.89.21-2.31.56-5.55.32-2.92.36-4.13-.44-4.71-.69-.5-1.8-.26-2.04-.18-.98.3-1.34.95-1.96,1.73-.23.29-1.85,2.33-2.81,3.31-1.72,1.75-3.69,2.47-5.41,3.11-1.07.39-2.51.76-4.21.89,0,0-2.79.33-5.48-.76-3.09-1.26-4.35-3.75-7.85-9.74-4.9-8.37-4.12-6.38-6.16-10.21Z"/>
      <g id="Swimmer">
        <path id="Swimmer_body" data-name="Swimmer body" class="cls-2" d="M149.28,133.12c3.47,4.59,8.27,6.63,13.8,7.56,7.66,1.29,15.27,2.9,22.94,4.19,2.78.47,4.14,1.67,4.39,4.59.24,2.75,1.74,5.21,2.75,7.77.96,2.45,1.83,4.88,1.97,7.59.1,1.96.66,4,1.45,5.81,1.94,4.47,1.31,8.76-.52,13.24-2.7-2.71-3.38-6.44-5.26-9.48-2.2-5.87-4.76-11.6-6.54-17.65-.88-2.99-3.75-4.69-6.77-4.04-7.75,1.68-15.75,1.58-23.45,3.53-2.42.62-4.33-.03-6.05-1.93-3.96-4.38-8.14-8.56-12.12-12.92-14.55-15.92-32.01-27.24-52.52-34-10.24-3.37-20.31-7.24-30.46-10.91-1.75-.63-3.45-1.37-5.87-2.35,3.78-.91,6.77.07,9.63.68,18.55,3.93,36.83,8.84,54.63,15.42,3.43,1.27,6.69,2.85,9.76,4.83,9.4,6.04,18.82,12.04,28.24,18.06Z"/>
        <path id="Swimmer_head" data-name="Swimmer head" class="cls-2" d="M158.6,169.05c.18-7.53,6.07-12.64,13.52-11.68,2.02.26,3.86.98,5.36,2.47,3.94,3.89,4.65,12.24,1.41,16.72-2.99,4.12-7.87,5.86-12.2,4.35-5.05-1.76-8.23-6.42-8.1-11.86Z"/>
      </g>
      <g id="Runner">
        <path id="Runner_body" data-name="Runner body" class="cls-2" d="M225.33,165.52c0-6.93-.05-13.53.01-20.14.08-7.66.06-15.32-.34-22.97-.05-.87-.1-1.76-.26-2.61-.19-1.05-.85-1.52-1.89-1.04-3.78,1.75-7.34,3.83-10.1,7.05-1.06,1.24-1.2,2.64-.79,4.23.81,3.15,1.47,6.35,2.19,9.53.47,2.08.56,4.16.33,6.37-1.25-.32-1.28-1.29-1.57-2.05-2.26-5.98-4.69-11.88-6.21-18.13-.64-2.61-.06-4.5,1.96-5.93,5.02-3.55,10-7.16,15.47-10.03,2.48-1.3,4.53-1.22,6.76.86,5.51,5.14,11.69,9.49,17.1,14.76,2.44,2.38,4.31,2.31,6.88-.15,2.45-2.34,4.67-4.91,6.98-7.39.86-.92,1.66-2.16,3.07-.89,1.22,1.11.68,2.26-.17,3.32-.31.39-.63.79-.99,1.13-3.24,3.06-5.61,6.72-7.57,10.7-1.99,4.05-3.1,4.34-7.07,2.48-2.16-1.01-4.34-1.97-6.56-2.83-2.67-1.04-3.54-.71-4.81,1.84-1.91,3.83-3.13,7.92-4.39,11.99-1.63,5.27-3.21,10.57-5.51,15.6-.65,1.42-1.19,2.95-2.52,4.29Z"/>
        <path id="Runner_head" data-name="Runner head" class="cls-2" d="M254.16,103.85c-.06.32-.13.69-.21,1.05-.64,3.2-4.85,7.01-8.51,7.7-3.19.6-7.04-1.23-8.99-4.27-3.35-5.25,1.08-13.82,7.34-14.15.61-.03,1.27.05,1.82.28,3.74,1.57,6.39,4.29,8.16,7.9.22.44.25.96.38,1.5Z"/>
      </g>
      <g id="Cyclist">
        <path id="Cyclist_back" data-name="Cyclist back" class="cls-2" d="M202.52,221.73c0-3.76-.16-7.53.04-11.28.24-4.39,1.35-5.38,5.62-6.05,3.37-.53,6.76-.44,10.14-.28,2.41.12,4.01-.63,4.88-3.11.88-2.49,2.11-3.19,3.75-2.86,2.45.5,4.46,3.07,4.29,5.48-.13,1.91-1.87,3.85-3.79,4.08-.99.12-2.01.02-3.01.02-7.06.03-11.85,3.32-14.38,9.97-1.52,4-2,8.27-2.97,12.41-.26,1.1-.57,2.2-.67,3.31-.44,4.65-2.98,7.98-6.79,10.29-6.95,4.22-14.26,6.16-22.16,2.57-8.78-3.99-12.34-13.07-8.71-22.4,1.91-4.91,6.36-6.96,10.96-8.44,5.53-1.77,10.85-1.5,15.6,2.49,1.96,1.65,4.23,2.93,6.36,4.38.28-.2.56-.4.83-.6ZM184.26,219.71c-1.94-.05-4.94.73-7.68,2.42-5.1,3.14-7.77,10.02-2.97,16.27,6.44,8.38,19.08,7.72,24.56-1.32,2.44-4.02,1.98-9.05-1.19-12.56-3.06-3.39-6.98-4.74-12.73-4.8Z"/>
        <path id="Cyclist_front" data-name="Cyclist front" class="cls-2" d="M229.45,248.5c-2.16-.07-4.28-.44-6.27-1.19-9.12-3.44-13.54-10.77-9.65-21.09,2.52-6.66,7.51-11.16,14.77-11.82,7.21-.65,12.98,2.64,16.74,8.8,6.5,10.64.11,23.57-12.22,25.03-1.12.13-2.25.18-3.37.27ZM230.03,219.71c-1,.05-2.01.04-3,.17-5.79.8-9.91,4.42-10.82,9.47-.95,5.23,1.67,10.37,6.71,13.14,6.91,3.81,15.33,1.45,20.02-5.61,2.71-4.08,2.44-8.38-.83-12.07-3.2-3.62-7.36-5.03-12.07-5.1Z"/>
      </g>
    </g>
  </g>
</svg>