<?xml version="1.0" encoding="UTF-8"?>
<svg id="white" xmlns="http://www.w3.org/2000/svg" viewBox="0 0 167.89 105.48">
  <defs>
    <style>
      .cls-1 {
        fill: #fff;
        fill-rule: evenodd;
        stroke-width: 0px;
      }
    </style>
  </defs>
  <g id="cyclist">
    <g>
      <path id="Cyclist_back" data-name="Cyclist back" class="cls-1" d="M73.54,49.48c0-7.87-.34-15.76.09-23.61.51-9.18,2.83-11.26,11.76-12.65,7.06-1.1,14.14-.93,21.22-.58,5.05.25,8.38-1.32,10.21-6.51,1.83-5.2,4.41-6.68,7.84-5.98,5.12,1.04,9.33,6.42,8.99,11.47-.28,3.99-3.9,8.05-7.92,8.54-2.07.25-4.2.04-6.3.05-14.78.05-24.79,6.95-30.09,20.87-3.18,8.38-4.18,17.3-6.21,25.97-.54,2.29-1.19,4.6-1.41,6.93-.92,9.73-6.22,16.69-14.2,21.53-14.54,8.83-29.83,12.89-46.35,5.37C2.8,92.54-4.65,73.55,2.94,54.03c4-10.26,13.3-14.57,22.92-17.65,11.56-3.7,22.69-3.13,32.63,5.2,4.1,3.45,8.85,6.13,13.3,9.16.58-.42,1.17-.84,1.74-1.26ZM35.33,45.25c-4.06-.1-10.33,1.52-16.07,5.06-10.68,6.57-16.25,20.96-6.21,34.03,13.46,17.54,39.92,16.15,51.39-2.77,5.1-8.41,4.14-18.94-2.48-26.29-6.4-7.1-14.61-9.93-26.63-10.03Z"/>
      <path id="Cyclist_front" data-name="Cyclist front" class="cls-1" d="M129.87,105.48c-4.52-.14-8.95-.91-13.13-2.49-19.09-7.21-28.34-22.54-20.18-44.11,5.27-13.94,15.72-23.36,30.91-24.73,15.09-1.36,27.15,5.52,35.02,18.41,13.59,22.26.22,49.31-25.57,52.36-2.34.28-4.71.38-7.06.57ZM131.09,45.25c-2.09.11-4.21.08-6.28.36-12.11,1.67-20.72,9.24-22.64,19.8-1.99,10.95,3.5,21.7,14.03,27.49,14.46,7.96,32.06,3.03,41.88-11.74,5.67-8.53,5.11-17.53-1.73-25.25-6.69-7.56-15.4-10.52-25.26-10.67Z"/>
    </g>
  </g>
</svg>