<?xml version="1.0" encoding="UTF-8"?>
<svg id="black" xmlns="http://www.w3.org/2000/svg" viewBox="0 0 115.84 110">
  <defs>
    <style>
      .cls-1 {
        fill: #000;
        fill-rule: evenodd;
        stroke-width: 0px;
      }
    </style>
  </defs>
  <g id="leaves_swimmer-2" data-name="leaves_swimmer">
    <g>
      <path class="cls-1" d="M93.5,59.55c2.94.75,5.74.47,8.53-.56,8.77-3.23,14.02-9.78,13.79-19.4-.11-4.44-1.14-8.73-2.87-12.84-1.12-2.65-2.63-5.06-4.88-6.91-3.64-3-7.85-3.57-12.32-2.56-6.99,1.58-12.62,5.48-17.56,10.51-2.11,2.15-3.68,4.59-4.45,7.54-.4,1.51-.98,2.97-1.66,4.38-.2.42-.35.97-1.04.84-.27-.74.15-1.33.42-1.91,1.46-3.07,2.95-6.12,4.43-9.19,2.18-4.53,3.59-9.27,3.44-14.35-.11-3.6-1.05-6.97-3.59-9.67C71.85,1.29,66.95-.43,61.37.09c-5.92.55-9.67,3.94-11.4,9.58-.66,2.14-1.01,4.35-1.03,6.6-.04,5.65.75,11.1,2.44,16.34.04.14.12.36.21.65.51,1.52,1.49,4.18,3.16,7.32-4.18-2.67-8.37-5.34-12.55-8.02-1.37-.88-2.81-1.58-4.34-2.14-7.91-2.92-16.03-5.11-24.27-6.85-1.27-.27-2.6-.7-4.28-.3,1.08.43,1.83.76,2.61,1.04,4.51,1.63,8.98,3.35,13.53,4.85,9.11,3,16.87,8.03,23.33,15.1,1.77,1.94,3.62,3.8,5.39,5.74.77.84,1.62,1.13,2.69.86,3.42-.87,6.98-.82,10.42-1.57,1.34-.29,2.62.47,3.01,1.79.79,2.68,1.93,5.23,2.91,7.84-1.41.6-2.25,1.81-3.07,3-.82,1.2-1.52,2.47-2.32,3.68-.77,1.16-.81,1.15-2.08.45-1.45-.79-2.41-.64-3.63.48-.28.26-.38.88-.99.67-.38-3.16-1.43-4.98-3.58-6.27-1.41-.84-2.84-1.31-4.39-.33-.23.15-.51.23-.78.29-1.11.29-2.1-.09-3.01-.67-.78-.5-.36-1.33-.47-2-.03-.16,0-.33,0-.5-.03-.95.38-1.55,1.29-1.91,1.4-.56,1.77-1.16,1.66-2.66-.16-2.19-.86-4.14-2.74-5.5-1.04-.75-2.01-1.6-3.07-2.33-3.95-2.73-8.17-5.04-12.35-7.39-3.51-1.97-7.17-3.61-10.98-4.92-3.67-1.26-7.41-2.13-11.32-1.84-4.43.33-7.7,2.4-9.58,6.51-1.25,2.74-1.64,5.67-1.76,8.63-.13,3.47.15,6.92.64,10.35.48,3.38,1.27,6.69,2.88,9.74,2.42,4.58,6.16,6.93,11.41,6.67,1.63-.08,3.21-.41,4.76-.86,3.34-.98,6.45-2.48,9.48-4.16,2.1-1.16,4.15-2.42,6.24-3.59.8-.45,1.58-1,2.81-1.05-.84.86-1.66,1.34-2.44,1.85-3.46,2.26-6.92,4.51-10.12,7.14-3.07,2.54-5.95,5.26-7.81,8.86-2.23,4.31-1.58,8.35,1.85,11.79,1.63,1.63,3.5,2.95,5.53,4.03,6.6,3.54,13.69,5.68,20.98,7.16,4.41.89,7.75-.78,10.02-4.64,1.2-2.05,1.85-4.3,2.36-6.59.9-4.05,1.12-8.18,1.28-12.31.1-2.68.09-5.36.35-8.03.12-1.18.67-2.04,1.73-2.96,0,.76.01,1.3,0,1.83-.13,4.86-.31,9.72,0,14.57.29,4.52.75,9.01,1.99,13.38.8,2.81,1.84,5.51,3.83,7.73,1.74,1.94,3.89,2.91,6.54,2.73,2.12-.14,4.01-.91,5.84-1.88,2.53-1.35,4.75-3.14,6.96-4.93,5-4.05,9.78-8.33,13.71-13.48,1.94-2.54,3.62-5.24,4.52-8.34,1.35-4.63.45-8.71-3.05-12.14-2.39-2.35-5.24-3.97-8.31-5.22-2.22-.9-4.48-1.71-6.72-2.56-.38-.15-.85-.18-1.05-.71,2.27-1.54,4.73-1.81,7.24-1.17Z"/>
      <path class="cls-1" d="M62.5,61.82c1.92.67,4.09-.1,5.42-1.93,1.44-1.99,1.12-5.7-.63-7.43-.67-.66-1.49-.98-2.38-1.1-3.31-.43-5.93,1.84-6.01,5.19-.06,2.42,1.36,4.49,3.6,5.27Z"/>
    </g>
  </g>
</svg>