<?xml version="1.0" encoding="UTF-8"?>
<svg id="white" xmlns="http://www.w3.org/2000/svg" viewBox="0 0 73.35 88.44">
  <defs>
    <style>
      .cls-1 {
        fill: #fff;
        fill-rule: evenodd;
        stroke-width: 0px;
      }
    </style>
  </defs>
  <g id="runner">
    <g>
      <path id="Runner_body" data-name="Runner body" class="cls-1" d="M23.4,88.44c0-8.58-.06-16.78.01-24.97.09-9.5.08-18.99-.42-28.48-.06-1.08-.12-2.18-.32-3.24-.24-1.3-1.06-1.89-2.35-1.28-4.68,2.17-9.1,4.75-12.52,8.74-1.31,1.54-1.49,3.27-.98,5.25,1,3.91,1.82,7.87,2.71,11.81.58,2.57.69,5.16.41,7.89-1.54-.4-1.58-1.59-1.94-2.54-2.8-7.41-5.82-14.73-7.7-22.47-.79-3.23-.07-5.57,2.43-7.35,6.22-4.4,12.39-8.88,19.17-12.43,3.07-1.61,5.62-1.51,8.38,1.06,6.82,6.37,14.49,11.76,21.19,18.3,3.03,2.95,5.35,2.86,8.53-.18,3.03-2.9,5.79-6.08,8.66-9.16,1.07-1.14,2.05-2.68,3.8-1.1,1.51,1.37.84,2.8-.21,4.12-.39.49-.78.98-1.23,1.41-4.01,3.8-6.95,8.32-9.38,13.26-2.47,5.01-3.85,5.38-8.76,3.08-2.67-1.25-5.38-2.44-8.13-3.51-3.31-1.28-4.38-.87-5.96,2.28-2.37,4.74-3.88,9.81-5.45,14.86-2.02,6.53-3.97,13.1-6.84,19.33-.81,1.76-1.47,3.65-3.13,5.32Z"/>
      <path id="Runner_head" data-name="Runner head" class="cls-1" d="M59.14,12.01c-.08.4-.17.85-.26,1.3-.79,3.96-6.01,8.68-10.55,9.54-3.95.75-8.73-1.52-11.14-5.3C33.04,11.05,38.53.42,46.29,0c.75-.04,1.58.06,2.26.35,4.64,1.94,7.92,5.32,10.12,9.79.27.54.31,1.2.47,1.86Z"/>
    </g>
  </g>
</svg>