<?xml version="1.0" encoding="UTF-8"?>
<svg id="blue" xmlns="http://www.w3.org/2000/svg" viewBox="0 0 150.75 90.1">
  <defs>
    <style>
      .cls-1 {
        fill: #385da8;
        fill-rule: evenodd;
        stroke-width: 0px;
      }
    </style>
  </defs>
  <g id="swimmer-3" data-name="swimmer">
    <g id="Swimmer">
      <path id="Swimmer_body" data-name="Swimmer body" class="cls-1" d="M102.27,39.35c3.47,4.59,8.27,6.63,13.8,7.56,7.66,1.29,15.27,2.9,22.94,4.19,2.78.47,4.14,1.67,4.39,4.59.24,2.75,1.74,5.21,2.75,7.77.96,2.45,1.83,4.88,1.97,7.59.1,1.96.66,4,1.45,5.81,1.94,4.47,1.31,8.76-.52,13.24-2.7-2.71-3.38-6.44-5.26-9.48-2.2-5.87-4.76-11.6-6.54-17.65-.88-2.99-3.75-4.69-6.77-4.04-7.75,1.68-15.75,1.58-23.45,3.53-2.42.62-4.33-.03-6.05-1.93-3.96-4.38-8.14-8.56-12.12-12.92-14.55-15.92-32.01-27.24-52.52-34C26.09,10.25,16.02,6.38,5.87,2.72,4.13,2.09,2.43,1.34,0,.37c3.78-.91,6.77.07,9.63.68,18.55,3.93,36.83,8.84,54.63,15.42,3.43,1.27,6.69,2.85,9.76,4.83,9.4,6.04,18.82,12.04,28.24,18.06Z"/>
      <path id="Swimmer_head" data-name="Swimmer head" class="cls-1" d="M111.58,75.28c.18-7.53,6.07-12.64,13.52-11.68,2.02.26,3.86.98,5.36,2.47,3.94,3.89,4.65,12.24,1.41,16.72-2.99,4.12-7.87,5.86-12.2,4.35-5.05-1.76-8.23-6.42-8.1-11.86Z"/>
    </g>
  </g>
</svg>